<?xml version="1.0" encoding="iso-8859-1"?>
<!-- Generator: Adobe Illustrator 19.0.0, SVG Export Plug-In . SVG Version: 6.00 Build 0)  -->
<svg version="1.1" id="Layer_1" xmlns="http://www.w3.org/2000/svg" xmlns:xlink="http://www.w3.org/1999/xlink" x="0px" y="0px"
	 viewBox="0 0 512 512" style="enable-background:new 0 0 512 512;" xml:space="preserve">
<polygon style="fill:#00B4D7;" points="395.386,476.106 503.013,476.106 503.013,171.161 186.109,171.161 257.861,99.409 
	198.068,39.616 12.71,224.975 198.068,410.333 257.861,350.54 186.109,278.789 395.386,278.789 "/>
<polygon style="fill:#0093C4;" points="395.386,476.106 449.199,476.106 449.199,224.975 12.71,224.975 198.068,410.333 
	257.861,350.54 186.109,278.789 395.386,278.789 "/>
<rect x="61.567" y="289.229" transform="matrix(-0.7071 -0.7071 0.7071 -0.7071 27.7548 607.9285)" style="fill:#FFFFFF;" width="156.434" height="17.974"/>
<path d="M512,485.093H386.398V287.776H207.806l62.765,62.765l-72.503,72.503L0,224.975L198.068,26.907l72.503,72.502l-62.765,62.765
	H512V485.093z M404.372,467.119h89.654V180.148H164.413l80.739-80.739l-47.084-47.083L25.419,224.975l172.649,172.649l47.084-47.084
	l-80.739-80.739h239.959V467.119z"/>
<g>
</g>
<g>
</g>
<g>
</g>
<g>
</g>
<g>
</g>
<g>
</g>
<g>
</g>
<g>
</g>
<g>
</g>
<g>
</g>
<g>
</g>
<g>
</g>
<g>
</g>
<g>
</g>
<g>
</g>
</svg>
