<?xml version="1.0" encoding="iso-8859-1"?>
<!-- Generator: Adobe Illustrator 19.0.0, SVG Export Plug-In . SVG Version: 6.00 Build 0)  -->
<svg version="1.1" id="Layer_1" xmlns="http://www.w3.org/2000/svg" xmlns:xlink="http://www.w3.org/1999/xlink" x="0px" y="0px"
	 viewBox="0 0 512 512" style="enable-background:new 0 0 512 512;" xml:space="preserve">
<polygon style="fill:#00B4D7;" points="116.615,476.107 8.987,476.107 8.987,171.162 325.891,171.162 254.139,99.409 
	313.932,39.616 499.291,224.975 313.932,410.333 254.139,350.54 325.891,278.789 116.615,278.789 "/>
<polygon style="fill:#0093C4;" points="116.615,476.107 62.801,476.107 62.801,224.975 499.291,224.975 313.932,410.333 
	254.139,350.54 325.891,278.789 116.615,278.789 "/>
<rect x="363.227" y="220.002" transform="matrix(-0.7071 -0.7071 0.7071 -0.7071 424.536 772.2866)" style="fill:#FFFFFF;" width="17.974" height="156.434"/>
<path d="M125.602,485.094H0v-322.92h304.194l-62.765-62.765l72.503-72.503L512,224.975L313.932,423.043l-72.503-72.503
	l62.765-62.765H125.602V485.094z M17.974,467.12h89.654V269.802h239.959l-80.739,80.739l47.084,47.084l172.649-172.649
	L313.932,52.325l-47.084,47.084l80.739,80.739H17.974V467.12z"/>
<g>
</g>
<g>
</g>
<g>
</g>
<g>
</g>
<g>
</g>
<g>
</g>
<g>
</g>
<g>
</g>
<g>
</g>
<g>
</g>
<g>
</g>
<g>
</g>
<g>
</g>
<g>
</g>
<g>
</g>
</svg>
