<svg width="512" height="512" xmlns="http://www.w3.org/2000/svg" xml:space="preserve" version="1.1">
 <g>
  <title>Layer 1</title>
  <g transform="rotate(-90 256 256)" id="svg_2">
   <polygon id="svg_1" fill="#8CD79F" points="221.331,48.871 288.146,115.687 207.968,195.866 501.957,195.866 501.957,316.134   207.968,316.134 288.146,396.313 221.331,463.129 14.202,256.001 "/>
   <path id="svg_3" d="m221.331,477.33l-221.331,-221.329l221.331,-221.331l81.018,81.017l-70.136,70.136l279.787,0l0,140.353l-279.787,0l70.136,70.136l-81.018,81.018zm-192.927,-221.329l192.926,192.926l52.614,-52.613l-90.221,-90.221l308.191,0l0,-100.182l-308.191,0l90.221,-90.221l-52.614,-52.613l-192.926,192.924z"/>
   <g id="svg_5"/>
   <g id="svg_6"/>
   <g id="svg_7"/>
   <g id="svg_8"/>
   <g id="svg_9"/>
   <g id="svg_10"/>
   <g id="svg_11"/>
   <g id="svg_12"/>
   <g id="svg_13"/>
   <g id="svg_14"/>
   <g id="svg_15"/>
   <g id="svg_16"/>
   <g id="svg_17"/>
   <g id="svg_18"/>
   <g id="svg_19"/>
  </g>
 </g>

</svg>