<?xml version="1.0" encoding="iso-8859-1"?>
<!-- Generator: Adobe Illustrator 19.0.0, SVG Export Plug-In . SVG Version: 6.00 Build 0)  -->
<svg version="1.1" id="Layer_1" xmlns="http://www.w3.org/2000/svg" xmlns:xlink="http://www.w3.org/1999/xlink" x="0px" y="0px"
	 viewBox="0 0 512 512" style="enable-background:new 0 0 512 512;" xml:space="preserve">
<path style="fill:#00B4D7;" d="M395.16,84.375c56.665,42.354,93.55,109.84,93.55,186.169c0,128.572-104.139,232.711-232.711,232.711
	S23.288,399.117,23.288,270.545c0-15.94,1.629-31.532,4.654-46.542H105.9c-4.538,14.661-6.981,30.368-6.981,46.542
	c0,86.802,70.278,157.08,157.08,157.08s157.08-70.28,157.08-157.08c0-56.897-30.368-106.466-75.631-134.042v64.229h-75.631V8.744
	h180.351v75.631H395.16z"/>
<g>
	<path style="fill:#0093C4;" d="M221.092,427.625c5.906,0,11.716-0.387,17.454-1.021c-78.567-8.682-139.626-75.165-139.626-156.059
		c0-16.173,2.444-31.882,6.981-46.542H70.993c-4.538,14.661-6.981,30.368-6.981,46.542
		C64.012,357.345,134.291,427.625,221.092,427.625z"/>
	<path style="fill:#0093C4;" d="M395.16,84.375l-26.305-8.744c56.665,42.354,84.949,118.584,84.949,194.912
		c0,122.68-94.874,222.882-215.257,231.831c5.782,0.43,11.561,0.88,17.454,0.88c128.572,0,232.711-104.139,232.711-232.711
		C488.71,194.215,451.825,126.729,395.16,84.375z"/>
</g>
<path d="M255.999,512c-64.519,0-125.161-25.109-170.754-70.702S14.543,335.063,14.543,270.545c0-16.14,1.624-32.38,4.827-48.27
	l1.414-7.016h96.976l-3.507,11.33c-4.372,14.127-6.59,28.917-6.59,43.956c0,81.793,66.543,148.336,148.336,148.336
	s148.336-66.543,148.336-148.336c0-46.623-21.467-89.481-58.142-117.489v56.42h-93.12V0h197.84v93.12H419.36
	c21.007,19.331,38.618,42.349,51.603,67.6c17.579,34.187,26.494,71.138,26.494,109.824c0,64.519-25.109,125.161-70.702,170.754
	C381.159,486.89,320.518,512,255.999,512z M35.214,232.746c-2.113,12.501-3.182,25.184-3.182,37.797
	c0,59.848,23.29,116.097,65.58,158.387s98.54,65.58,158.387,65.58s116.097-23.29,158.387-65.58s65.58-98.54,65.58-158.387
	c0-35.877-8.263-70.137-24.557-101.827c-15.516-30.171-38.159-56.915-65.484-77.338l-21.07-15.748h64.569V17.489H270.561v174.497
	h58.143v-71.05l13.294,8.1c23.898,14.56,43.889,35.003,57.811,59.121c14.402,24.946,22.013,53.435,22.013,82.389
	c0,91.436-74.388,165.824-165.824,165.824c-91.435,0-165.824-74.388-165.824-165.824c0-12.823,1.446-25.489,4.307-37.797H35.214
	V232.746z"/>
<g>
	<rect x="287.977" y="43.65" style="fill:#FFFFFF;" width="17.489" height="81.449"/>
	<rect x="287.977" y="142.555" style="fill:#FFFFFF;" width="17.489" height="23.27"/>
</g>
<g>
</g>
<g>
</g>
<g>
</g>
<g>
</g>
<g>
</g>
<g>
</g>
<g>
</g>
<g>
</g>
<g>
</g>
<g>
</g>
<g>
</g>
<g>
</g>
<g>
</g>
<g>
</g>
<g>
</g>
</svg>
