<?xml version="1.0" encoding="iso-8859-1"?>
<!-- Generator: Adobe Illustrator 19.0.0, SVG Export Plug-In . SVG Version: 6.00 Build 0)  -->
<svg version="1.1" id="Layer_1" xmlns="http://www.w3.org/2000/svg" xmlns:xlink="http://www.w3.org/1999/xlink" x="0px" y="0px"
	 viewBox="0 0 512 512" style="enable-background:new 0 0 512 512;" xml:space="preserve">
<path style="fill:#00B4D7;" d="M116.838,84.375c-56.665,42.354-93.55,109.84-93.55,186.169
	c0,128.572,104.139,232.711,232.711,232.711S488.71,399.117,488.71,270.545c0-15.94-1.629-31.532-4.654-46.542h-77.958
	c4.538,14.661,6.981,30.368,6.981,46.542c0,86.802-70.278,157.08-157.08,157.08s-157.08-70.28-157.08-157.08
	c0-56.897,30.368-106.466,75.631-134.042v64.229h75.631V8.744H69.83v75.631H116.838z"/>
<g>
	<path style="fill:#0093C4;" d="M290.905,427.623c-5.906,0-11.716-0.387-17.454-1.021c78.568-8.681,139.628-75.164,139.628-156.057
		c0-16.173-2.444-31.882-6.981-46.542h34.907c4.538,14.661,6.981,30.368,6.981,46.542
		C447.985,357.345,377.707,427.623,290.905,427.623z"/>
	<path style="fill:#0093C4;" d="M116.838,84.375l26.305-8.744c-56.665,42.354-84.948,118.584-84.948,194.912
		c0,122.68,94.874,222.882,215.257,231.831c-5.782,0.43-11.561,0.88-17.454,0.88c-128.572,0-232.711-104.139-232.711-232.711
		C23.288,194.215,60.173,126.729,116.838,84.375z"/>
</g>
<path d="M255.999,512c-64.519,0-125.161-25.109-170.754-70.702S14.544,335.063,14.544,270.545c0-38.687,8.915-75.637,26.494-109.824
	c12.985-25.251,30.596-48.27,51.602-67.6H61.086V0h197.84v209.475h-93.12v-56.42c-36.676,28.007-58.142,70.865-58.142,117.489
	c0,81.793,66.543,148.336,148.336,148.336s148.336-66.543,148.336-148.336c0-15.039-2.218-29.829-6.59-43.957l-3.507-11.33h96.976
	l1.414,7.016c3.203,15.89,4.827,32.13,4.827,48.27c0,64.519-25.109,125.161-70.702,170.754C381.159,486.89,320.518,512,255.999,512z
	 M78.574,75.631h64.568l-21.069,15.748c-27.324,20.423-49.967,47.167-65.483,77.338c-16.296,31.689-24.557,65.948-24.557,101.827
	c0,59.848,23.29,116.097,65.58,158.387c42.289,42.29,98.539,65.58,158.387,65.58s116.097-23.29,158.387-65.58
	s65.58-98.54,65.58-158.387c0-12.615-1.069-25.298-3.182-37.797h-59.268c2.861,12.308,4.307,24.976,4.307,37.797
	c0,91.436-74.388,165.824-165.824,165.824c-91.435,0-165.824-74.388-165.824-165.824c0-28.953,7.612-57.443,22.013-82.389
	c13.923-24.118,33.914-44.561,57.811-59.121l13.294-8.1v71.051h58.143V17.489H78.574V75.631z"/>
<g>
	<rect x="206.528" y="43.65" style="fill:#FFFFFF;" width="17.489" height="81.449"/>
	<rect x="206.528" y="142.555" style="fill:#FFFFFF;" width="17.489" height="23.271"/>
</g>
<g>
</g>
<g>
</g>
<g>
</g>
<g>
</g>
<g>
</g>
<g>
</g>
<g>
</g>
<g>
</g>
<g>
</g>
<g>
</g>
<g>
</g>
<g>
</g>
<g>
</g>
<g>
</g>
<g>
</g>
</svg>
