<?xml version="1.0" encoding="iso-8859-1"?>
<!-- Generator: Adobe Illustrator 19.0.0, SVG Export Plug-In . SVG Version: 6.00 Build 0)  -->
<svg version="1.1" id="Layer_1" xmlns="http://www.w3.org/2000/svg" xmlns:xlink="http://www.w3.org/1999/xlink" x="0px" y="0px"
	 viewBox="0 0 512 512" style="enable-background:new 0 0 512 512;" xml:space="preserve">
<path style="fill:#00B4D7;" d="M253.626,369.977v66.486H92.159V203.761c-16.622,16.622-33.243,33.243-33.243,33.243l-47.49-47.49
	L125.402,75.537l113.977,113.977l-47.49,47.49l-33.243-33.243v166.216H253.626z"/>
<path style="fill:#0093C4;" d="M125.402,403.22V75.537L11.425,189.514l47.49,47.49c0,0,16.622-16.622,33.243-33.243v232.702h161.466
	V403.22L125.402,403.22L125.402,403.22z"/>
<path d="M261.705,444.542H84.079V223.265l-25.164,25.164L0,189.514L125.402,64.112l125.402,125.402l-58.915,58.916l-25.164-25.164
	v138.632h94.981V444.542z M100.238,428.384h145.309v-50.328h-94.981v-193.8l41.322,41.322l36.064-36.064L125.402,86.963
	L22.851,189.514l36.064,36.064l41.322-41.322L100.238,428.384L100.238,428.384z"/>
<rect x="81.706" y="103.523" transform="matrix(-0.7071 -0.7071 0.7071 -0.7071 44.4541 326.2014)" style="fill:#FFFFFF;" width="16.158" height="100.741"/>
<path style="fill:#00B4D7;" d="M258.374,142.023V75.537H419.84v232.702c16.622-16.622,33.243-33.243,33.243-33.243l47.49,47.49
	L386.598,436.463L272.622,322.486l47.49-47.49l33.243,33.243V142.023L258.374,142.023L258.374,142.023z"/>
<path style="fill:#0093C4;" d="M386.598,108.78v327.683l113.977-113.977l-47.49-47.49c0,0-16.622,16.622-33.243,33.243V75.537
	H258.374v33.243H386.598z"/>
<path d="M386.598,447.888L261.197,322.486l58.916-58.915l25.164,25.164V150.102h-94.981V67.458h177.626v221.277l25.164-25.164
	L512,322.486L386.598,447.888z M284.048,322.486l102.551,102.552l102.551-102.552l-36.064-36.064l-41.322,41.322V83.616H266.453
	v50.328h94.981v193.799l-41.322-41.322L284.048,322.486z"/>
<rect x="414.135" y="307.73" transform="matrix(-0.7071 -0.7071 0.7071 -0.7071 467.5492 909.8661)" style="fill:#FFFFFF;" width="16.158" height="100.741"/>
<g>
</g>
<g>
</g>
<g>
</g>
<g>
</g>
<g>
</g>
<g>
</g>
<g>
</g>
<g>
</g>
<g>
</g>
<g>
</g>
<g>
</g>
<g>
</g>
<g>
</g>
<g>
</g>
<g>
</g>
</svg>
