<?xml version="1.0" encoding="iso-8859-1"?>
<!-- Generator: Adobe Illustrator 18.0.0, SVG Export Plug-In . SVG Version: 6.00 Build 0)  -->
<!DOCTYPE svg PUBLIC "-//W3C//DTD SVG 1.1//EN" "http://www.w3.org/Graphics/SVG/1.1/DTD/svg11.dtd">
<svg version="1.1" id="Capa_1" xmlns="http://www.w3.org/2000/svg" xmlns:xlink="http://www.w3.org/1999/xlink" x="0px" y="0px"
	 viewBox="0 0 57.876 57.876" style="enable-background:new 0 0 57.876 57.876;" xml:space="preserve">
<path style="fill:#DCE0E8;" d="M28.938,0c-9.004,0-19,4.126-19,17.876c0,15.333,11,22.698,11,27.067v0.933h8h8v-0.933
	c0-4.369,11-11.734,11-27.067C47.938,4.126,37.942,0,28.938,0z"/>
<path style="fill:#E7ECED;" d="M28.938,0c-9.004,0-19,4.126-19,17.876h38C47.938,4.126,37.942,0,28.938,0z"/>
<rect x="20.938" y="49.876" style="fill:#E7ECED;" width="16" height="4"/>
<rect x="20.938" y="45.876" style="fill:#C7CAC7;" width="16" height="4"/>
<polygon style="fill:#C7CAC7;" points="31.938,57.876 25.938,57.876 22.938,53.876 34.938,53.876 "/>
<path style="fill:#FFFFFF;" d="M16.938,15.876c-0.552,0-1-0.447-1-1c0-4.411,3.589-8,8-8c0.552,0,1,0.447,1,1s-0.448,1-1,1
	c-3.309,0-6,2.691-6,6C17.938,15.429,17.49,15.876,16.938,15.876z"/>
<path style="fill:#B2B5C8;" d="M21.973,36.196c1.155,1.632,2.225,3.145,2.965,9.68h8c0.74-6.535,1.81-8.048,2.965-9.68
	c3.124-4.417,6.035-9.913,6.035-18.32h-26C15.938,26.283,18.849,31.779,21.973,36.196z"/>
<path style="fill:#DCE0E8;" d="M27.938,45.876c-0.777-8.314-1.083-9.875-2.092-11.99c-1.755-3.682-2.961-7.014-3.908-16.01h14
	c-0.947,8.995-2.034,12.387-3.907,16.009c-1.051,2.033-1.316,3.677-2.093,11.991H27.938z"/>
<g>
</g>
<g>
</g>
<g>
</g>
<g>
</g>
<g>
</g>
<g>
</g>
<g>
</g>
<g>
</g>
<g>
</g>
<g>
</g>
<g>
</g>
<g>
</g>
<g>
</g>
<g>
</g>
<g>
</g>
</svg>
