<?xml version="1.0" encoding="iso-8859-1"?>
<!-- Generator: Adobe Illustrator 18.0.0, SVG Export Plug-In . SVG Version: 6.00 Build 0)  -->
<!DOCTYPE svg PUBLIC "-//W3C//DTD SVG 1.1//EN" "http://www.w3.org/Graphics/SVG/1.1/DTD/svg11.dtd">
<svg version="1.1" id="Capa_1" xmlns="http://www.w3.org/2000/svg" xmlns:xlink="http://www.w3.org/1999/xlink" x="0px" y="0px"
	 viewBox="0 0 58 58" style="enable-background:new 0 0 58 58;" xml:space="preserve">
<rect x="20.5" y="50" style="fill:#E7ECED;" width="16" height="4"/>
<rect x="20.5" y="46" style="fill:#C7CAC7;" width="16" height="4"/>
<polygon style="fill:#C7CAC7;" points="31.5,58 25.5,58 22.5,54 34.5,54 "/>
<g>
	<path style="fill:#EFCE4A;" d="M26.771,0.124C17.821,1.116,10.596,8.36,9.62,17.311C8.923,23.7,11.32,29.538,15.496,33.543
		c3.153,3.024,5.004,7.156,5.004,11.525V46h16v0c0-4.576,2.023-8.882,5.444-11.92c4.021-3.571,6.556-8.778,6.556-14.58
		C48.5,7.996,38.538-1.181,26.771,0.124z"/>
</g>
<g>
	<path style="fill:#FFFFFF;" d="M41.028,19.151c-0.469-0.29-1.085-0.148-1.377,0.321C39.038,20.457,38.274,21,37.5,21
		s-1.538-0.543-2.151-1.528c-0.005-0.008-0.014-0.012-0.019-0.021c-0.037-0.056-0.091-0.099-0.14-0.148
		c-0.047-0.046-0.087-0.097-0.141-0.133c-0.009-0.006-0.013-0.015-0.022-0.02c-0.044-0.027-0.094-0.032-0.14-0.052
		c-0.066-0.028-0.128-0.06-0.197-0.073c-0.063-0.012-0.125-0.007-0.188-0.007c-0.065,0-0.128-0.006-0.193,0.007
		c-0.07,0.014-0.133,0.046-0.199,0.074c-0.045,0.02-0.094,0.024-0.138,0.051c-0.008,0.005-0.012,0.014-0.021,0.02
		c-0.055,0.036-0.098,0.089-0.146,0.137c-0.047,0.047-0.099,0.089-0.135,0.144c-0.005,0.008-0.014,0.012-0.02,0.021
		C33.038,20.457,32.274,21,31.5,21c-0.774,0-1.538-0.543-2.151-1.528c-0.005-0.008-0.014-0.012-0.019-0.021
		c-0.037-0.056-0.091-0.099-0.14-0.148c-0.047-0.046-0.087-0.097-0.141-0.133c-0.009-0.006-0.013-0.015-0.022-0.02
		c-0.044-0.027-0.094-0.032-0.14-0.052c-0.066-0.028-0.128-0.06-0.198-0.073c-0.063-0.012-0.125-0.007-0.188-0.007
		c-0.065,0-0.128-0.006-0.193,0.007c-0.071,0.014-0.134,0.046-0.201,0.075c-0.045,0.02-0.093,0.024-0.136,0.051
		c-0.008,0.005-0.012,0.014-0.02,0.019c-0.056,0.037-0.099,0.09-0.147,0.138c-0.047,0.047-0.099,0.088-0.134,0.143
		c-0.005,0.008-0.014,0.012-0.02,0.021C27.038,20.457,26.274,21,25.5,21s-1.538-0.543-2.151-1.528
		c-0.005-0.008-0.014-0.012-0.019-0.021c-0.037-0.056-0.091-0.099-0.14-0.148c-0.047-0.046-0.087-0.097-0.141-0.133
		c-0.009-0.006-0.013-0.015-0.022-0.02c-0.044-0.027-0.094-0.032-0.14-0.052c-0.066-0.028-0.128-0.06-0.198-0.073
		c-0.063-0.012-0.125-0.007-0.188-0.007c-0.065,0-0.128-0.006-0.193,0.007c-0.071,0.014-0.134,0.046-0.201,0.075
		c-0.045,0.02-0.093,0.024-0.136,0.051c-0.008,0.005-0.012,0.014-0.02,0.019c-0.056,0.037-0.099,0.09-0.147,0.138
		c-0.047,0.047-0.099,0.088-0.134,0.143c-0.005,0.008-0.014,0.012-0.02,0.021C21.038,20.457,20.274,21,19.5,21
		s-1.538-0.543-2.151-1.528c-0.292-0.469-0.909-0.612-1.377-0.321c-0.469,0.292-0.613,0.908-0.321,1.378
		C16.642,22.122,18.009,23,19.5,23c1.102,0,2.135-0.482,3-1.376c0.865,0.894,1.898,1.376,3,1.376s2.135-0.482,3-1.376
		c0.865,0.894,1.898,1.376,3,1.376c1.102,0,2.135-0.482,3-1.376c0.865,0.894,1.898,1.376,3,1.376c1.491,0,2.858-0.878,3.849-2.472
		C41.641,20.059,41.497,19.443,41.028,19.151z"/>
	<path style="fill:#FFFFFF;" d="M37.5,24c-7.37,0-7.949,6.871-7.995,11h-2.011c-0.046-4.129-0.625-11-7.995-11c-0.552,0-1,0.447-1,1
		s0.448,1,1,1c4.43,0,6,2.617,6,10v10h6V36c0-7.383,1.57-10,6-10c0.552,0,1-0.447,1-1S38.052,24,37.5,24z"/>
</g>
<rect x="25.5" y="35" style="fill:#EBBA16;" width="6" height="11"/>
<g>
</g>
<g>
</g>
<g>
</g>
<g>
</g>
<g>
</g>
<g>
</g>
<g>
</g>
<g>
</g>
<g>
</g>
<g>
</g>
<g>
</g>
<g>
</g>
<g>
</g>
<g>
</g>
<g>
</g>
</svg>
