<?xml version="1.0" encoding="iso-8859-1"?>
<!-- Generator: Adobe Illustrator 19.0.0, SVG Export Plug-In . SVG Version: 6.00 Build 0)  -->
<svg version="1.1" id="Layer_1" xmlns="http://www.w3.org/2000/svg" xmlns:xlink="http://www.w3.org/1999/xlink" x="0px" y="0px"
	 viewBox="0 0 512 512" style="enable-background:new 0 0 512 512;" xml:space="preserve">
<path style="fill:#D8143A;" d="M509.542,478.32L444.93,349.091l-77.576-155.152L276.815,12.865C272.874,4.98,264.816,0,256,0
	c-0.008,0-0.017,0-0.026,0c-8.806,0.009-16.851,4.987-20.789,12.864l-90.537,181.076L67.072,349.091L2.458,478.32
	c-3.607,7.215-3.222,15.782,1.018,22.644C7.717,507.823,15.208,512,23.273,512h232.701h232.754c8.065,0,15.555-4.177,19.797-11.037
	C512.765,494.102,513.15,485.534,509.542,478.32z"/>
<path style="fill:#FFB655;" d="M276.815,12.865C272.874,4.98,264.816,0,256,0c-0.008,0-0.017,0-0.026,0
	c-8.806,0.009-16.851,4.987-20.789,12.864l-90.537,181.076h111.327h111.379L276.815,12.865z"/>
<polygon style="fill:#FF6243;" points="367.354,193.939 255.974,193.939 144.648,193.939 67.072,349.091 255.974,349.091 
	444.93,349.091 "/>
<path style="fill:#EE8700;" d="M255.974,0.002c-8.806,0.009-16.851,4.987-20.789,12.864l-90.537,181.074h111.327V0.002H255.974z"/>
<polygon style="fill:#FF5023;" points="255.974,193.939 144.648,193.939 67.072,349.091 255.974,349.091 "/>
<path style="fill:#B8002B;" d="M67.072,349.091L2.458,478.32c-3.607,7.215-3.222,15.782,1.018,22.644
	C7.717,507.823,15.208,512,23.273,512h232.701V349.091H67.072z"/>
<g>
</g>
<g>
</g>
<g>
</g>
<g>
</g>
<g>
</g>
<g>
</g>
<g>
</g>
<g>
</g>
<g>
</g>
<g>
</g>
<g>
</g>
<g>
</g>
<g>
</g>
<g>
</g>
<g>
</g>
</svg>
