<?xml version="1.0" encoding="iso-8859-1"?>
<!-- Generator: Adobe Illustrator 19.0.0, SVG Export Plug-In . SVG Version: 6.00 Build 0)  -->
<svg version="1.1" id="Layer_1" xmlns="http://www.w3.org/2000/svg" xmlns:xlink="http://www.w3.org/1999/xlink" x="0px" y="0px"
	 viewBox="0 0 512 512" style="enable-background:new 0 0 512 512;" xml:space="preserve">
<path style="fill:#3D6DEB;" d="M503.491,5.294c-5.387-4.42-12.47-6.192-19.302-4.835c-36.239,7.208-68.721,18.679-98.076,34.628
	c-1.21,0.545-2.374,1.173-3.465,1.907c-19.596,10.977-37.793,23.972-54.73,39.137c-16.058,14.378-30.196,29.899-43.179,45.967
	c-0.102,0.127-0.209,0.254-0.312,0.382c-17.371,21.538-32.67,44.055-47.67,66.146c-50.586,74.502-98.363,144.874-218.02,168.656
	C7.846,359.447,0,369.005,0,380.109v108.606c0,12.853,10.42,23.273,23.273,23.273h93.091h93.091h93.091h93.091h93.091
	c12.853,0,23.273-10.42,23.273-23.273V23.285C512,16.316,508.877,9.716,503.491,5.294z"/>
<g>
	<path style="fill:#5286FA;" d="M139.636,360.398v105.044h46.545V325.351c-0.7,0.636-1.378,1.286-2.085,1.919
		C170.156,339.752,155.359,350.763,139.636,360.398z"/>
	<path style="fill:#5286FA;" d="M46.545,465.442h46.545v-81.684c-14.77,5.939-30.256,10.938-46.545,14.991V465.442z"/>
	<path style="fill:#5286FA;" d="M418.909,465.442h46.545V52.82c-17.056,4.889-32.453,10.87-46.545,17.729V465.442z"/>
	<path style="fill:#5286FA;" d="M232.727,274.446v190.996h46.545V208.871c-1.334,1.964-2.672,3.93-4.009,5.902
		C261.761,234.66,248.008,254.892,232.727,274.446z"/>
	<path style="fill:#5286FA;" d="M325.818,145.444v319.998h46.545V99.677C354.838,113.445,339.686,128.906,325.818,145.444z"/>
</g>
<path style="fill:#424EDE;" d="M232.727,465.442V274.446c8.128-10.401,15.816-20.995,23.273-31.628V160.61
	c-6.552,9.345-12.93,18.716-19.243,28.016c-50.586,74.502-98.363,144.874-218.02,168.656C7.846,359.447,0,369.005,0,380.109v108.606
	c0,12.853,10.42,23.273,23.273,23.273h93.091h93.091H256v-46.545H232.727z M93.091,465.442H46.545v-66.693
	c16.289-4.053,31.775-9.052,46.545-14.991V465.442z M186.182,465.442h-46.545V360.398c15.723-9.635,30.52-20.646,44.46-33.128
	c0.707-0.633,1.385-1.283,2.085-1.919V465.442z"/>
<g>
	<path style="fill:#6E76E5;" d="M139.636,360.398v105.044h46.545V325.351c-0.7,0.636-1.378,1.286-2.085,1.919
		C170.156,339.752,155.359,350.763,139.636,360.398z"/>
	<path style="fill:#6E76E5;" d="M46.545,465.442h46.545v-81.684c-14.77,5.939-30.256,10.938-46.545,14.991V465.442z"/>
	<path style="fill:#6E76E5;" d="M232.727,465.442H256V242.82c-7.457,10.631-15.144,21.226-23.273,31.628V465.442z"/>
</g>
<g>
</g>
<g>
</g>
<g>
</g>
<g>
</g>
<g>
</g>
<g>
</g>
<g>
</g>
<g>
</g>
<g>
</g>
<g>
</g>
<g>
</g>
<g>
</g>
<g>
</g>
<g>
</g>
<g>
</g>
</svg>
