<?xml version="1.0" encoding="iso-8859-1"?>
<!-- Generator: Adobe Illustrator 19.0.0, SVG Export Plug-In . SVG Version: 6.00 Build 0)  -->
<svg version="1.1" id="Layer_1" xmlns="http://www.w3.org/2000/svg" xmlns:xlink="http://www.w3.org/1999/xlink" x="0px" y="0px"
	 viewBox="0 0 512 512" style="enable-background:new 0 0 512 512;" xml:space="preserve">
<path style="fill:#57565C;" d="M488.727,465.455h-23.273h-46.545h-23.273h-23.273h-46.545h-23.273h-23.273h-46.545h-23.273h-23.273
	h-46.545h-23.273H93.091H46.545H23.273C10.42,465.455,0,475.873,0,488.727c0,9.138,5.267,17.045,12.93,20.854
	c1.769,0.878,3.665,1.539,5.654,1.946c1.514,0.31,3.081,0.473,4.689,0.473h93.091h93.091h93.091h93.091h93.091
	C501.58,512,512,501.582,512,488.727S501.58,465.455,488.727,465.455z"/>
<path style="fill:#B6E892;" d="M488.727,0h-93.091c-12.853,0-23.273,10.42-23.273,23.273v442.182h23.273h23.273h46.545h23.273
	c12.853,0,23.273,10.418,23.273,23.273V23.273C512,10.42,501.58,0,488.727,0z"/>
<path style="fill:#FFB655;" d="M302.545,116.364h-93.091c-12.853,0-23.273,10.42-23.273,23.273v325.818h23.273h23.273h46.545h23.273
	h23.273V139.636C325.818,126.784,315.398,116.364,302.545,116.364z"/>
<path style="fill:#D8143A;" d="M139.636,256c0-12.853-10.42-23.273-23.273-23.273H23.273C10.42,232.727,0,243.147,0,256v232.727
	c0-12.854,10.42-23.273,23.273-23.273h23.273h46.545h23.273h23.273V256z"/>
<path style="fill:#B8002B;" d="M23.273,232.727C10.42,232.727,0,243.147,0,256v232.727c0-12.854,10.42-23.273,23.273-23.273h23.273
	h23.273V232.727H23.273z"/>
<path style="fill:#EE8700;" d="M209.455,116.364c-12.853,0-23.273,10.42-23.273,23.273v325.818h23.273h23.273H256V116.364H209.455z"
	/>
<path style="fill:#7ED63E;" d="M395.636,0c-12.853,0-23.273,10.42-23.273,23.273v442.182h23.273h23.273h23.273V0H395.636z"/>
<g>
</g>
<g>
</g>
<g>
</g>
<g>
</g>
<g>
</g>
<g>
</g>
<g>
</g>
<g>
</g>
<g>
</g>
<g>
</g>
<g>
</g>
<g>
</g>
<g>
</g>
<g>
</g>
<g>
</g>
</svg>
