<?xml version="1.0" encoding="iso-8859-1"?>
<!-- Generator: Adobe Illustrator 19.0.0, SVG Export Plug-In . SVG Version: 6.00 Build 0)  -->
<svg version="1.1" id="Layer_1" xmlns="http://www.w3.org/2000/svg" xmlns:xlink="http://www.w3.org/1999/xlink" x="0px" y="0px"
	 viewBox="0 0 512 512" style="enable-background:new 0 0 512 512;" xml:space="preserve">
<path style="fill:#FFB655;" d="M479.452,97.438C442.269,38.917,376.868,0,302.545,0c-12.853,0-23.273,10.42-23.273,23.273v186.182
	c0,1.147,0.112,2.278,0.278,3.399c0.728,4.912,2.985,9.503,6.54,13.058l131.651,131.651c4.544,4.544,10.501,6.816,16.455,6.816
	c5.956,0,11.913-2.271,16.457-6.816C490.212,318,512,265.402,512,209.455C512,168.284,500.053,129.856,479.452,97.438z"/>
<path style="fill:#D8143A;" d="M209.455,0C133.114,0,66.192,41.059,29.584,102.246C10.809,133.629,0,170.301,0,209.455
	C0,265.402,21.788,318,61.348,357.561c4.544,4.544,10.501,6.816,16.455,6.816c5.956,0,11.913-2.271,16.455-6.816L225.908,225.91
	c2.152-2.152,3.834-4.684,4.991-7.435c1.192-2.828,1.828-5.891,1.828-9.02V23.273C232.727,10.42,222.307,0,209.455,0z"/>
<path style="fill:#B6E892;" d="M404.106,417.739L272.455,286.089c-4.543-4.544-10.499-6.816-16.455-6.816
	c-5.956,0-11.913,2.271-16.455,6.816L107.894,417.739c-9.087,9.089-9.089,23.824,0,32.912C147.453,490.214,200.051,512,256,512
	c55.948,0,108.547-21.786,148.106-61.348C413.195,441.563,413.193,426.828,404.106,417.739z"/>
<path style="fill:#7ED63E;" d="M272.455,286.089l131.651,131.651c9.087,9.089,9.089,23.824,0,32.912
	C364.547,490.212,311.948,512,256,512V279.273C261.956,279.273,267.913,281.544,272.455,286.089z"/>
<path style="fill:#EE8700;" d="M302.545,0c-12.853,0-23.273,10.42-23.273,23.273v186.182c0,1.147,0.112,2.278,0.278,3.399
	L479.454,97.438C442.269,38.917,376.868,0,302.545,0z"/>
<path style="fill:#B8002B;" d="M0,209.455C0,265.402,21.788,318,61.348,357.562c4.544,4.544,10.501,6.816,16.455,6.816
	c5.956,0,11.913-2.271,16.455-6.816L225.91,225.911c2.152-2.152,3.834-4.684,4.991-7.435L29.584,102.246
	C10.809,133.629,0,170.301,0,209.455z"/>
<g>
</g>
<g>
</g>
<g>
</g>
<g>
</g>
<g>
</g>
<g>
</g>
<g>
</g>
<g>
</g>
<g>
</g>
<g>
</g>
<g>
</g>
<g>
</g>
<g>
</g>
<g>
</g>
<g>
</g>
</svg>
