<?xml version="1.0" encoding="iso-8859-1"?>
<!-- Generator: Adobe Illustrator 19.0.0, SVG Export Plug-In . SVG Version: 6.00 Build 0)  -->
<svg version="1.1" id="Layer_1" xmlns="http://www.w3.org/2000/svg" xmlns:xlink="http://www.w3.org/1999/xlink" x="0px" y="0px"
	 viewBox="0 0 512 512" style="enable-background:new 0 0 512 512;" xml:space="preserve">
<path style="fill:#5286FA;" d="M488.727,356.848h-54.303V256c0-12.853-10.42-23.273-23.273-23.273H279.273v-77.576h54.303
	c12.853,0,23.273-10.42,23.273-23.273V23.273C356.848,10.42,346.428,0,333.576,0H178.424c-12.853,0-23.273,10.42-23.273,23.273
	v108.606c0,12.853,10.42,23.273,23.273,23.273h54.303v77.576H100.848c-12.853,0-23.273,10.42-23.273,23.273v100.848H23.273
	C10.42,356.848,0,367.268,0,380.121v108.606C0,501.58,10.42,512,23.273,512h155.152h155.152h155.152
	C501.58,512,512,501.58,512,488.727V380.121C512,367.268,501.58,356.848,488.727,356.848z M232.727,356.848h-54.303h-54.303v-77.576
	h108.606V356.848z M387.879,356.848h-54.303h-54.303v-77.576h108.606V356.848z"/>
<g>
	<path style="fill:#3D6DEB;" d="M488.727,356.848h-54.303V256c0-12.853-10.42-23.273-23.273-23.273H279.273v-77.576h54.303
		c12.853,0,23.273-10.42,23.273-23.273V23.273C356.848,10.42,346.428,0,333.576,0H178.424c-12.853,0-23.273,10.42-23.273,23.273
		v108.606c0,12.853,10.42,23.273,23.273,23.273h54.303v77.576H100.848c-12.853,0-23.273,10.42-23.273,23.273v100.848H23.273
		C10.42,356.848,0,367.268,0,380.121v108.606C0,501.58,10.42,512,23.273,512h155.152h155.152h155.152
		C501.58,512,512,501.58,512,488.727V380.121C512,367.268,501.58,356.848,488.727,356.848z M201.697,46.545h108.606v62.061H256
		h-54.303V46.545z M465.455,465.455H356.848v-62.061h54.303h54.303V465.455z M46.545,403.394h54.303h54.303v62.061H46.545V403.394z
		 M201.697,403.394H256h54.303v62.061H201.697V403.394z M387.879,279.273v77.576h-54.303h-54.303v-77.576H387.879z M124.121,279.273
		h108.606v77.576h-54.303h-54.303V279.273z"/>
	<path style="fill:#3D6DEB;" d="M488.727,356.848h-54.303V256c0-12.853-10.42-23.273-23.273-23.273H279.273v-77.576h54.303
		c12.853,0,23.273-10.42,23.273-23.273V23.273C356.848,10.42,346.428,0,333.576,0H178.424c-12.853,0-23.273,10.42-23.273,23.273
		v108.606c0,12.853,10.42,23.273,23.273,23.273h54.303v77.576H100.848c-12.853,0-23.273,10.42-23.273,23.273v100.848H23.273
		C10.42,356.848,0,367.268,0,380.121v108.606C0,501.58,10.42,512,23.273,512h155.152h155.152h155.152
		C501.58,512,512,501.58,512,488.727V380.121C512,367.268,501.58,356.848,488.727,356.848z M201.697,108.606V46.545h108.606v62.061
		H256H201.697z M155.152,465.455H46.545v-62.061h54.303h54.303V465.455z M124.121,356.848v-77.576h108.606v77.576h-54.303H124.121z
		 M310.303,465.455H201.697v-62.061H256h54.303V465.455z M279.273,356.848v-77.576h108.606v77.576h-54.303H279.273z
		 M465.455,465.455H356.848v-62.061h54.303h54.303V465.455z"/>
</g>
<g>
	<polygon style="fill:#5286FA;" points="46.545,403.394 46.545,465.455 155.152,465.455 155.152,403.394 100.848,403.394 	"/>
	<polygon style="fill:#5286FA;" points="465.455,403.394 411.151,403.394 356.848,403.394 356.848,465.455 465.455,465.455 	"/>
	<polygon style="fill:#5286FA;" points="310.303,403.394 256,403.394 201.697,403.394 201.697,465.455 310.303,465.455 	"/>
</g>
<polygon style="fill:#6E76E5;" points="310.303,108.606 310.303,46.545 201.697,46.545 201.697,108.606 256,108.606 "/>
<rect x="256" y="46.545" style="fill:#5286FA;" width="54.303" height="62.061"/>
<g>
	<polygon style="fill:#424EDE;" points="46.545,403.394 46.545,465.455 155.152,465.455 155.152,403.394 100.848,403.394 	"/>
	<path style="fill:#424EDE;" d="M256,46.545V0h-77.576c-12.853,0-23.273,10.42-23.273,23.273v108.606
		c0,12.853,10.42,23.273,23.273,23.273h54.303v77.576H100.848c-12.853,0-23.273,10.42-23.273,23.273v100.848H23.273
		C10.42,356.848,0,367.268,0,380.121v108.606C0,501.58,10.42,512,23.273,512h155.152H256v-46.545h-54.303v-62.061H256V108.606
		h-54.303V46.545H256z M155.152,465.455H46.545v-62.061h54.303h54.303V465.455z M232.727,356.848h-54.303h-54.303v-77.576h108.606
		V356.848z"/>
</g>
<g>
	<polygon style="fill:#6E76E5;" points="46.545,403.394 46.545,465.455 155.152,465.455 155.152,403.394 100.848,403.394 	"/>
	<rect x="201.697" y="403.394" style="fill:#6E76E5;" width="54.303" height="62.061"/>
</g>
<g>
</g>
<g>
</g>
<g>
</g>
<g>
</g>
<g>
</g>
<g>
</g>
<g>
</g>
<g>
</g>
<g>
</g>
<g>
</g>
<g>
</g>
<g>
</g>
<g>
</g>
<g>
</g>
<g>
</g>
</svg>
