<?xml version="1.0" encoding="iso-8859-1"?>
<!-- Generator: Adobe Illustrator 19.0.0, SVG Export Plug-In . SVG Version: 6.00 Build 0)  -->
<svg version="1.1" id="Layer_1" xmlns="http://www.w3.org/2000/svg" xmlns:xlink="http://www.w3.org/1999/xlink" x="0px" y="0px"
	 viewBox="0 0 473.931 473.931" style="enable-background:new 0 0 473.931 473.931;" xml:space="preserve">
<circle style="fill:#FFC10E;" cx="236.966" cy="236.966" r="236.966"/>
<g>
	<path style="fill:#ED3533;" d="M182.13,109.97c-14.133,0-27.262,6.892-35.154,18.432l-1.628,2.069l-1.089-1.388
		c-7.802-11.962-20.954-19.109-35.232-19.109c-24.363,0-42.042,17.684-42.042,42.039c0,35.962,65.107,88.968,69.855,92.784
		c2.241,2.144,5.175,3.323,8.288,3.323s6.047-1.175,8.288-3.326c4.763-3.847,70.753-57.683,70.753-92.781
		C224.169,127.654,206.489,109.97,182.13,109.97z"/>
	<path style="fill:#ED3533;" d="M366.696,109.97c-14.133,0-27.262,6.892-35.154,18.432l-1.628,2.069l-1.089-1.388
		c-7.802-11.962-20.954-19.109-35.232-19.109c-24.363,0-42.042,17.684-42.042,42.039c0,35.962,65.107,88.968,69.855,92.784
		c2.241,2.144,5.175,3.323,8.288,3.323c3.109,0,6.043-1.175,8.288-3.326c4.76-3.843,70.749-57.683,70.749-92.781
		C408.735,127.654,391.055,109.97,366.696,109.97z"/>
</g>
<path style="fill:#333333;" d="M343.254,316.86c-59.281,60.325-154.662,59.853-213.449-0.898c-8.4-8.681-21.616,4.561-13.227,13.227
	c65.769,67.969,173.644,68.332,239.903,0.898C364.941,321.481,351.718,308.246,343.254,316.86L343.254,316.86z"/>
<g>
</g>
<g>
</g>
<g>
</g>
<g>
</g>
<g>
</g>
<g>
</g>
<g>
</g>
<g>
</g>
<g>
</g>
<g>
</g>
<g>
</g>
<g>
</g>
<g>
</g>
<g>
</g>
<g>
</g>
</svg>
