<?xml version="1.0" encoding="iso-8859-1"?>
<!-- Generator: Adobe Illustrator 19.0.0, SVG Export Plug-In . SVG Version: 6.00 Build 0)  -->
<svg version="1.1" id="Layer_1" xmlns="http://www.w3.org/2000/svg" xmlns:xlink="http://www.w3.org/1999/xlink" x="0px" y="0px"
	 viewBox="0 0 473.935 473.935" style="enable-background:new 0 0 473.935 473.935;" xml:space="preserve">
<circle style="fill:#FFC10E;" cx="236.967" cy="236.967" r="236.967"/>
<g>
	<circle style="fill:#333333;" cx="164.938" cy="207.632" r="37.216"/>
	<circle style="fill:#333333;" cx="313.637" cy="207.632" r="37.216"/>
	<path style="fill:#333333;" d="M280.432,101.047c12.456-14.571,24.913-29.137,37.366-43.708c-4.412,0-8.816,0-13.227,0
		c25.141,20.176,50.282,40.351,75.423,60.527c9.31,7.472,22.642-5.676,13.227-13.227c-25.141-20.176-50.282-40.351-75.423-60.527
		c-3.719-2.986-9.658-4.176-13.227,0c-12.456,14.571-24.913,29.137-37.366,43.708C259.411,96.935,272.582,110.233,280.432,101.047
		L280.432,101.047z"/>
	<path style="fill:#333333;" d="M208.635,87.82c-12.456-14.571-24.909-29.137-37.365-43.708c-3.57-4.176-9.508-2.986-13.227,0
		c-25.145,20.176-50.282,40.351-75.423,60.527c-9.414,7.551,3.918,20.7,13.227,13.227c25.141-20.176,50.282-40.351,75.423-60.527
		c-4.412,0-8.816,0-13.227,0c12.456,14.571,24.909,29.137,37.365,43.708C203.258,110.233,216.429,96.935,208.635,87.82
		L208.635,87.82z"/>
	<path style="fill:#333333;" d="M178.592,369.397c35.831,11.326,71.659,22.66,107.49,33.99c11.54,3.648,16.438-14.421,4.977-18.043
		c-35.831-11.326-71.659-22.66-107.49-33.99C172.029,347.706,167.134,365.771,178.592,369.397L178.592,369.397z"/>
</g>
<g>
</g>
<g>
</g>
<g>
</g>
<g>
</g>
<g>
</g>
<g>
</g>
<g>
</g>
<g>
</g>
<g>
</g>
<g>
</g>
<g>
</g>
<g>
</g>
<g>
</g>
<g>
</g>
<g>
</g>
</svg>
