<?xml version="1.0" encoding="iso-8859-1"?>
<!-- Generator: Adobe Illustrator 19.0.0, SVG Export Plug-In . SVG Version: 6.00 Build 0)  -->
<svg version="1.1" id="Layer_1" xmlns="http://www.w3.org/2000/svg" xmlns:xlink="http://www.w3.org/1999/xlink" x="0px" y="0px"
	 viewBox="0 0 473.931 473.931" style="enable-background:new 0 0 473.931 473.931;" xml:space="preserve">
<circle style="fill:#FFC10E;" cx="236.966" cy="236.966" r="236.966"/>
<path style="fill:#D22327;" d="M131.841,281.987h209.535c0,0-30.806,118.101-105.533,118.101S131.841,281.987,131.841,281.987z"/>
<path style="fill:#9B1C1F;" d="M259.203,298.675c0,9.081-13.351,16.434-22.596,16.434c-9.242,0-22.596-7.353-22.596-16.434
	c0-9.078,13.354-16.438,22.596-16.438C245.849,282.241,259.203,289.597,259.203,298.675z"/>
<g>
	<path style="fill:#333333;" d="M374.187,172.974c-16.801-35.584-57.331-51.868-94.057-37.59
		c-11.117,4.325-6.286,22.421,4.973,18.043c29.522-11.48,59.371,0.277,72.927,28.987
		C363.179,193.322,379.306,183.821,374.187,172.974L374.187,172.974z"/>
	<path style="fill:#333333;" d="M122.243,182.328c13.556-28.711,43.404-40.471,72.927-28.987
		c11.259,4.378,16.09-13.717,4.973-18.043c-36.725-14.282-77.252,2.006-94.057,37.59
		C100.968,183.732,117.095,193.232,122.243,182.328L122.243,182.328z"/>
</g>
<path style="fill:#E22928;" d="M334.296,270.926c-26.922-14.174-53.724-74.233-97.398-30.772h-0.378
	c-43.67-43.461-70.476,16.598-97.398,30.772c-6.978,3.674-7.143,11.016-7.143,11.016s30.159,24.628,56.351,24.628
	s30.473-14.499,48.272-14.499h0.21c17.803,0,22.084,14.499,48.276,14.499s56.351-24.628,56.351-24.628
	S341.275,274.604,334.296,270.926z"/>
<g>
</g>
<g>
</g>
<g>
</g>
<g>
</g>
<g>
</g>
<g>
</g>
<g>
</g>
<g>
</g>
<g>
</g>
<g>
</g>
<g>
</g>
<g>
</g>
<g>
</g>
<g>
</g>
<g>
</g>
</svg>
