<?xml version="1.0" ?><svg width="83px" height="83px" viewBox="0 -0.5 83 83" fill="none" xmlns="http://www.w3.org/2000/svg"><path clip-rule="evenodd" d="M41.5012 0.163945C33.7153 0.163945 26.3228 2.16849 20.2618 6.15345C17.2535 8.12984 15.7016 10.8525 11.3555 3.66109C3.7839 8.27367 2.40597 16.9366 6.04493 20.9437C2.75095 26.8145 0.870117 33.5845 0.870117 40.794C0.870117 63.2343 19.0609 81.4251 41.5012 81.4251C63.9405 81.4251 82.1313 63.2343 82.1313 40.794C82.1313 32.3303 79.5424 24.47 75.1129 17.9635C79.2014 9.73207 74.5898 3.74759 69.0268 0C67.1379 4.79965 66.0597 7.58973 60.1446 4.687C54.5011 1.91604 48.2219 0.163945 41.5012 0.163945V0.163945Z" fill="url(#paint0_linear)" fill-rule="evenodd"/><path d="M51.8424 42.0992C52.5676 41.9484 53.2777 42.413 53.4275 43.1372C53.5784 43.8614 53.1127 44.5715 52.3885 44.7223C50.9955 45.013 49.3883 45.4103 47.8283 45.9766C46.3135 46.5267 44.8451 47.2348 43.6804 48.1541C43.101 48.6117 42.2602 48.5132 41.8025 47.9338C41.3449 47.3545 41.4435 46.5137 42.0228 46.056C43.447 44.9305 45.1689 44.0917 46.916 43.4581C48.6178 42.8395 50.3488 42.41 51.8424 42.0992Z" fill="#2B2A29"/><path d="M11.2134 45.3137C10.4751 45.2503 9.92796 44.5996 9.99132 43.8603C10.0547 43.1221 10.7054 42.5749 11.4447 42.6383C12.9604 42.769 14.7276 42.9873 16.4988 43.3997C18.3103 43.8211 20.1197 44.4487 21.6666 45.3932C22.2982 45.7794 22.4974 46.6041 22.1122 47.2358C21.7269 47.8674 20.9022 48.0666 20.2705 47.6813C19.0032 46.9069 17.4604 46.3788 15.8903 46.0137C14.282 45.6386 12.6366 45.4364 11.2134 45.3137V45.3137Z" fill="#2B2A29"/><path clip-rule="evenodd" d="M16.0495 45.1373C17.6517 44.8688 19.2006 46.1411 19.5084 47.9797C19.8162 49.8173 18.7661 51.5251 17.1639 51.7937C15.5606 52.0622 14.0127 50.7889 13.7039 48.9513C13.3962 47.1127 14.4462 45.4059 16.0495 45.1373Z" fill="#282829" fill-rule="evenodd"/><path clip-rule="evenodd" d="M46.4957 45.1881C48.098 44.9196 49.6469 46.1919 49.9547 48.0305C50.2624 49.8681 49.2134 51.5759 47.6101 51.8445C46.0079 52.113 44.459 50.8397 44.1512 49.0021C43.8434 47.1635 44.8935 45.4567 46.4957 45.1881Z" fill="#282829" fill-rule="evenodd"/><path d="M22.9145 63.9699C22.3815 64.4799 21.5346 64.4607 21.0246 63.9277C20.5147 63.3946 20.5338 62.5487 21.0669 62.0388C24.0058 59.2266 27.9365 57.7682 31.8933 57.8667C35.672 57.9623 39.4749 59.47 42.4652 62.5668C42.9781 63.0999 42.961 63.9478 42.428 64.4607C41.8949 64.9737 41.047 64.9566 40.534 64.4235C38.0648 61.8658 34.9338 60.6206 31.8299 60.5432C28.5661 60.4607 25.3284 61.6596 22.9145 63.9699V63.9699Z" fill="#2B2A29"/><defs><linearGradient gradientUnits="userSpaceOnUse" id="paint0_linear" x1="49.0185" x2="33.9849" y1="80.7211" y2="0.702049"><stop stop-color="#D6373D"/><stop offset="1" stop-color="#EA514F"/></linearGradient></defs></svg>