<?xml version="1.0" encoding="iso-8859-1"?>
<!-- Generator: Adobe Illustrator 19.0.0, SVG Export Plug-In . SVG Version: 6.00 Build 0)  -->
<svg version="1.1" id="Capa_1" xmlns="http://www.w3.org/2000/svg" xmlns:xlink="http://www.w3.org/1999/xlink" x="0px" y="0px"
	 viewBox="0 0 58.006 58.006" style="enable-background:new 0 0 58.006 58.006;" xml:space="preserve">
<path style="fill:#546A79;" d="M44.997,58.006H13.01c-1.66,0-3.006-1.346-3.006-3.006V3.006C10.003,1.346,11.349,0,13.01,0h31.987
	c1.66,0,3.006,1.346,3.006,3.006V55C48.003,56.66,46.657,58.006,44.997,58.006z"/>
<path style="fill:#38454F;" d="M35.308,36.093c1.059,1.357,1.695,3.059,1.695,4.913c0,1.857-0.638,3.561-1.7,4.919
	c0.02,0.017,0.045,0.024,0.064,0.043l3.496,3.497c1.953-2.274,3.14-5.225,3.14-8.458c0-3.231-1.185-6.18-3.136-8.453l-3.502,3.502
	C35.348,36.072,35.326,36.078,35.308,36.093z"/>
<path style="fill:#38454F;" d="M22.703,45.925c-1.061-1.358-1.7-3.062-1.7-4.919c0-1.854,0.636-3.555,1.694-4.912
	c-0.018-0.016-0.042-0.022-0.06-0.04l-3.5-3.5c-1.95,2.273-3.134,5.222-3.134,8.452c0,3.233,1.187,6.183,3.14,8.458l3.496-3.496
	C22.658,45.949,22.683,45.942,22.703,45.925z"/>
<path style="fill:#38454F;" d="M24.092,34.701c1.356-1.058,3.058-1.694,4.912-1.694c1.853,0,3.554,0.636,4.91,1.693
	c0.016-0.018,0.021-0.041,0.039-0.058l3.502-3.502c-2.273-1.949-5.221-3.133-8.45-3.133c-3.23,0-6.178,1.185-8.452,3.134l3.5,3.5
	C24.07,34.659,24.076,34.682,24.092,34.701z"/>
<path style="fill:#38454F;" d="M33.91,47.316c-1.356,1.056-3.055,1.69-4.906,1.69s-3.551-0.635-4.906-1.69
	c-0.018,0.021-0.024,0.046-0.044,0.066l-3.495,3.496c2.273,1.946,5.219,3.129,8.445,3.129c3.227,0,6.173-1.182,8.445-3.129
	l-3.495-3.496C33.934,47.362,33.927,47.337,33.91,47.316z"/>
<path style="fill:#AFB6BB;" d="M33.913,34.699c0.521,0.406,0.989,0.874,1.395,1.394c0.018-0.016,0.041-0.021,0.058-0.038
	l3.502-3.502c-0.435-0.507-0.907-0.979-1.414-1.414l-3.502,3.502C33.934,34.658,33.928,34.681,33.913,34.699z"/>
<path style="fill:#AFB6BB;" d="M22.698,36.095c0.406-0.52,0.874-0.988,1.394-1.394c-0.016-0.018-0.022-0.042-0.04-0.06l-3.5-3.5
	c-0.507,0.435-0.979,0.907-1.414,1.414l3.5,3.5C22.656,36.073,22.679,36.079,22.698,36.095z"/>
<path style="fill:#AFB6BB;" d="M24.097,47.316c-0.52-0.405-0.988-0.871-1.394-1.391c-0.02,0.017-0.045,0.024-0.064,0.043
	l-3.496,3.496c0.435,0.507,0.907,0.979,1.415,1.413l3.495-3.496C24.072,47.362,24.079,47.337,24.097,47.316z"/>
<path style="fill:#AFB6BB;" d="M38.863,49.464l-3.496-3.497c-0.019-0.019-0.044-0.025-0.064-0.043
	c-0.406,0.519-0.874,0.986-1.394,1.391c0.018,0.021,0.024,0.046,0.044,0.066l3.495,3.496C37.956,50.443,38.428,49.971,38.863,49.464
	z"/>
<circle style="fill:#38454F;" cx="29.003" cy="41.006" r="3"/>
<rect x="15.003" y="5.006" style="fill:#D1DEE6;" width="28" height="19"/>
<path style="fill:#FFFFFF;" d="M18.003,13.003c-0.256,0-0.512-0.098-0.707-0.293c-0.391-0.391-0.391-1.023,0-1.414l4-4
	c0.391-0.391,1.023-0.391,1.414,0s0.391,1.023,0,1.414l-4,4C18.515,12.905,18.259,13.003,18.003,13.003z"/>
<path style="fill:#FFFFFF;" d="M18.003,18.003c-0.256,0-0.512-0.098-0.707-0.293c-0.391-0.391-0.391-1.023,0-1.414l2-2
	c0.391-0.391,1.023-0.391,1.414,0s0.391,1.023,0,1.414l-2,2C18.515,17.905,18.259,18.003,18.003,18.003z"/>
<path style="fill:#FFFFFF;" d="M22.003,14c-0.26,0-0.521-0.1-0.71-0.29c-0.181-0.18-0.29-0.44-0.29-0.71
	c0-0.26,0.109-0.52,0.29-0.71c0.38-0.37,1.04-0.37,1.42,0c0.18,0.19,0.29,0.45,0.29,0.71c0,0.27-0.11,0.52-0.29,0.71
	C22.523,13.9,22.263,14,22.003,14z"/>
<path style="fill:#FFFFFF;" d="M24.003,12.003c-0.256,0-0.512-0.098-0.707-0.293c-0.391-0.391-0.391-1.023,0-1.414l3-3
	c0.391-0.391,1.023-0.391,1.414,0s0.391,1.023,0,1.414l-3,3C24.515,11.905,24.259,12.003,24.003,12.003z"/>
<g>
</g>
<g>
</g>
<g>
</g>
<g>
</g>
<g>
</g>
<g>
</g>
<g>
</g>
<g>
</g>
<g>
</g>
<g>
</g>
<g>
</g>
<g>
</g>
<g>
</g>
<g>
</g>
<g>
</g>
</svg>
