<?xml version="1.0" encoding="iso-8859-1"?>
<!-- Generator: Adobe Illustrator 19.0.0, SVG Export Plug-In . SVG Version: 6.00 Build 0)  -->
<svg version="1.1" id="Layer_1" xmlns="http://www.w3.org/2000/svg" xmlns:xlink="http://www.w3.org/1999/xlink" x="0px" y="0px"
	 viewBox="0 0 306.388 306.388" style="enable-background:new 0 0 306.388 306.388;" xml:space="preserve">
<g>
	<path style="fill:#CCD0D2;" d="M19.149,95.761h268.09c10.57,0,19.149,8.569,19.149,19.149v114.876
		c0,10.58-8.579,19.168-19.149,19.168H19.149C8.579,248.955,0,240.376,0,229.786V114.919C0,104.33,8.569,95.761,19.149,95.761z"/>
	<path style="fill:#324D5B;" d="M258.515,67.027H47.873c-10.57,0-19.149,8.579-19.149,19.149v9.584h248.94v-9.584
		C277.664,75.616,269.085,67.027,258.515,67.027z M258.515,172.338H47.873c-10.57,0-19.149,8.579-19.149,19.168v57.448h248.94
		v-57.448C277.664,180.917,269.085,172.338,258.515,172.338z"/>
	<path style="fill:#E4E7E7;" d="M57.448,0.005v95.756H248.94V0.005H57.448z M57.448,306.383H248.94v-95.727H57.448V306.383z"/>
	<path style="fill:#C2C5C5;" d="M76.597,19.164v19.149h153.194V19.164H76.597z M76.597,67.027h153.194v-19.14H76.597V67.027z"/>
	<path style="fill:#C25D52;" d="M67.022,124.494c5.295,0,9.575,4.28,9.575,9.555c0,5.295-4.28,9.594-9.575,9.594
		s-9.575-4.299-9.575-9.594C57.448,128.784,61.728,124.494,67.022,124.494z"/>
	<path style="fill:#50626C;" d="M105.321,124.494c5.295,0,9.575,4.28,9.575,9.555c0,5.295-4.28,9.594-9.575,9.594
		s-9.575-4.299-9.575-9.594C95.746,128.784,100.026,124.494,105.321,124.494z"/>
</g>
<g>
</g>
<g>
</g>
<g>
</g>
<g>
</g>
<g>
</g>
<g>
</g>
<g>
</g>
<g>
</g>
<g>
</g>
<g>
</g>
<g>
</g>
<g>
</g>
<g>
</g>
<g>
</g>
<g>
</g>
</svg>
