<?xml version="1.0" encoding="iso-8859-1"?>
<!-- Generator: Adobe Illustrator 19.0.0, SVG Export Plug-In . SVG Version: 6.00 Build 0)  -->
<svg version="1.1" id="Layer_1" xmlns="http://www.w3.org/2000/svg" xmlns:xlink="http://www.w3.org/1999/xlink" x="0px" y="0px"
	 viewBox="0 0 502.441 502.441" style="enable-background:new 0 0 502.441 502.441;" xml:space="preserve">
<path style="fill:#FEC656;" d="M270.975,18.687c-84.267,0-173.867,39.467-198.4,115.2c-5.333,14.933,1.067,30.933,9.6,44.8
	c5.333,8.533,12.8,14.933,21.333,21.333c7.467,6.4,17.067,10.667,25.6,14.933c16,7.467,34.133,9.6,52.267,12.8
	c17.067,3.2,35.2,6.4,51.2,14.933s29.867,22.4,34.133,39.467s-3.2,38.4-19.2,45.867c-10.667,5.333-23.467,4.267-35.2,4.267
	c-23.467,1.067-46.933,8.533-66.133,21.333c-44.8,29.867-24.533,69.333-18.133,78.933c26.667,43.733,89.6,51.2,144,51.2
	c126.933,0,230.4-104.533,230.4-232.533S397.908,18.687,270.975,18.687z"/>
<path style="fill:#F16D6E;" d="M219.775,142.421c-11.733,9.6-24.533,17.067-39.467,21.333c-5.333,1.067-11.733,3.2-14.933,7.467
	c-2.133-3.2-2.133-7.467-1.067-11.733c-4.267,2.133-8.533,3.2-13.867,2.133c0-2.133,1.067-3.2,1.067-5.333
	c-2.133-1.067-3.2-1.067-5.333-2.133c1.067-3.2,3.2-6.4,5.333-9.6c-3.2,0-6.4,1.067-8.533,3.2c-4.267-7.467-17.067,3.2-22.4-3.2
	c-1.067-2.133-1.067-5.333,0-7.467c2.133-8.533,7.467-17.067,12.8-24.533c11.733-16,24.533-29.867,39.467-42.667
	c0,4.267,1.067,8.533,1.067,12.8c9.6-2.133,19.2-4.267,28.8-6.4s20.267-4.267,26.667-12.8c1.067,6.4,0,12.8-4.267,18.133
	c4.267-1.067,8.533-1.067,12.8-2.133c-2.133,4.267-4.267,7.467-6.4,11.733c3.2-1.067,6.4-1.067,9.6-1.067
	c0,4.267-2.133,7.467-4.267,10.667c-6.4,9.6-11.733,18.133-18.133,27.733c2.133-1.067,4.267-2.133,5.333-3.2
	C228.308,132.821,224.041,138.154,219.775,142.421z"/>
<path style="fill:#80C350;" d="M355.241,150.954c-11.733,9.6-24.533,17.067-39.467,21.333c-5.333,1.067-11.733,3.2-14.933,7.467
	c-2.133-3.2-2.133-7.467-1.067-11.733c-4.267,2.133-8.533,3.2-13.867,2.133c0-2.133,1.067-3.2,1.067-5.333
	c-2.133-1.067-3.2-1.067-5.333-2.133c1.067-3.2,3.2-6.4,5.333-9.6c-3.2,0-6.4,1.067-8.533,3.2c-4.267-7.467-17.067,3.2-22.4-3.2
	c-1.067-2.133-1.067-5.333,0-7.467c2.133-8.533,7.467-17.067,12.8-24.533c11.733-16,24.533-29.867,39.467-42.667
	c0,4.267,1.067,8.533,1.067,12.8c9.6-2.133,19.2-4.267,28.8-6.4c9.6-2.133,20.267-4.267,26.667-12.8c1.067,6.4,0,12.8-4.267,18.133
	c4.267-1.067,8.533-1.067,12.8-2.133c0,5.333-2.133,9.6-5.333,13.867c3.2-1.067,6.4-1.067,9.6-1.067
	c0,4.267-2.133,7.467-4.267,10.667c-6.4,9.6-11.733,18.133-18.133,27.733c2.133-1.067,4.267-2.133,5.333-3.2
	C364.841,141.354,360.575,147.754,355.241,150.954z"/>
<path style="fill:#637888;" d="M425.641,248.021c-11.733,9.6-24.533,17.067-39.467,21.333c-5.333,1.067-11.733,3.2-14.933,7.467
	c-2.133-3.2-2.133-7.467-1.067-11.733c-4.267,2.133-8.533,3.2-13.867,2.133c0-2.133,1.067-3.2,1.067-5.333
	c-2.133-1.067-3.2-1.067-5.333-2.133c1.067-3.2,3.2-6.4,5.333-9.6c-3.2,0-6.4,1.067-8.533,3.2c-4.267-7.467-17.067,3.2-22.4-3.2
	c-1.067-2.133-1.067-5.333,0-7.467c2.133-8.533,7.467-17.067,12.8-24.533c11.733-16,24.533-29.867,39.467-42.667
	c0,4.267,1.067,8.533,1.067,12.8c9.6-2.133,19.2-4.267,28.8-6.4s20.267-4.267,26.667-12.8c1.067,6.4,0,12.8-4.267,18.133
	c4.267-1.067,8.533-1.067,12.8-2.133c-2.133,4.267-4.267,7.467-6.4,11.733c3.2-1.067,6.4-1.067,9.6-1.067
	c0,4.267-2.133,7.467-4.267,10.667c-6.4,9.6-11.733,18.133-18.133,27.733c2.133-1.067,4.267-2.133,5.333-3.2
	C434.175,238.421,429.908,243.754,425.641,248.021z"/>
<path style="fill:#B06D48;" d="M411.775,374.954c-11.733,9.6-24.533,17.067-39.467,21.333c-5.333,1.067-11.733,3.2-14.933,7.467
	c-2.133-3.2-2.133-7.467-1.067-11.733c-4.267,2.133-8.533,3.2-13.867,2.133c0-2.133,1.067-3.2,1.067-5.333
	c-2.133-1.067-3.2-1.067-5.333-2.133c1.067-3.2,3.2-6.4,5.333-9.6c-3.2,0-6.4,1.067-8.533,3.2c-4.267-7.467-17.067,3.2-22.4-3.2
	c-1.067-2.133-1.067-5.333,0-7.467c2.133-8.533,7.467-17.067,12.8-24.533c11.733-16,24.533-29.867,39.467-42.667
	c0,4.267,1.067,8.533,1.067,12.8c9.6-2.133,19.2-4.267,28.8-6.4c9.6-2.133,20.267-4.267,26.667-12.8c1.067,6.4,0,12.8-4.267,18.133
	c4.267-1.067,8.533-1.067,12.8-2.133c-2.133,4.267-4.267,7.467-6.4,11.733c3.2-1.067,6.4-1.067,9.6-1.067
	c0,4.267-2.133,7.467-4.267,10.667c-6.4,9.6-11.733,18.133-18.133,27.733c2.133-1.067,4.267-2.133,5.333-3.2
	C420.308,365.354,416.041,371.754,411.775,374.954z"/>
<path style="fill:#60C3AB;" d="M257.108,428.287c-11.733,9.6-24.533,17.067-39.467,21.333c-5.333,1.067-11.733,3.2-14.933,7.467
	c-2.133-3.2-2.133-7.467-1.067-11.733c-4.267,2.133-8.533,3.2-13.867,2.133c0-2.133,1.067-3.2,1.067-5.333
	c-2.133-1.067-3.2-1.067-5.333-2.133c1.067-3.2,3.2-6.4,5.333-9.6c-3.2,0-6.4,1.067-8.533,3.2c-4.267-7.467-17.067,3.2-22.4-3.2
	c-1.067-2.133-1.067-5.333,0-7.467c2.133-8.533,7.467-17.067,12.8-24.533c11.733-16,24.533-29.867,39.467-42.667
	c0,4.267,1.067,8.533,1.067,12.8c9.6-2.133,19.2-4.267,28.8-6.4c9.6-2.133,20.267-4.267,26.667-12.8c1.067,6.4,0,12.8-4.267,18.133
	c4.267-1.067,8.533-1.067,12.8-2.133c-2.133,4.267-4.267,7.467-6.4,11.733c3.2-1.067,6.4-1.067,9.6-1.067
	c0,4.267-2.133,7.467-4.267,10.667c-6.4,9.6-11.733,18.133-18.133,27.733c2.133-1.067,4.267-2.133,5.333-3.2
	C266.708,417.621,262.441,424.021,257.108,428.287z"/>
<path style="fill:#637888;" d="M24.575,501.887L24.575,501.887c-12.8,0-22.4-9.6-22.4-22.4V211.754h44.8v267.733
	C46.975,492.287,36.308,501.887,24.575,501.887z"/>
<polygon style="fill:#E0E0DF;" points="46.975,211.754 2.175,211.754 7.508,78.421 40.575,78.421 "/>
<path style="fill:#F16D6E;" d="M40.575,78.421L40.575,78.421c3.2-4.267,6.4-7.467,8.533-10.667c5.333-9.6,4.267-20.267,2.133-29.867
	c-1.067-7.467-3.2-13.867-7.467-19.2c-6.4-8.533-16-13.867-24.533-18.133c3.2,7.467,1.067,16-3.2,23.467
	c-4.267,6.4-10.667,12.8-13.867,20.267c-4.267,10.667-2.133,24.533,5.333,34.133H40.575z"/>
<g>
</g>
<g>
</g>
<g>
</g>
<g>
</g>
<g>
</g>
<g>
</g>
<g>
</g>
<g>
</g>
<g>
</g>
<g>
</g>
<g>
</g>
<g>
</g>
<g>
</g>
<g>
</g>
<g>
</g>
</svg>
