<?xml version="1.0" encoding="iso-8859-1"?>
<!-- Generator: Adobe Illustrator 19.0.0, SVG Export Plug-In . SVG Version: 6.00 Build 0)  -->
<svg version="1.1" id="Layer_1" xmlns="http://www.w3.org/2000/svg" xmlns:xlink="http://www.w3.org/1999/xlink" x="0px" y="0px"
	 viewBox="0 0 512 512" style="enable-background:new 0 0 512 512;" xml:space="preserve">
<path style="fill:#3B4E56;" d="M486.948,371.656H23.926C10.712,371.656,0,360.944,0,347.73V161.416
	c0-13.213,10.711-23.926,23.926-23.926h463.022c13.213,0,23.926,10.711,23.926,23.926V347.73
	C510.874,360.943,500.162,371.656,486.948,371.656z"/>
<path style="fill:#2C3E44;" d="M0,170.219v25.204c0,7.154,5.799,12.953,12.953,12.953h484.969c7.154,0,12.953-5.799,12.953-12.953
	v-25.204H0z"/>
<path style="fill:#FF0029;" d="M177.712,138.297H60.126l0,0c0-13.686,11.095-24.782,24.782-24.782h68.023
	C166.617,113.516,177.712,124.611,177.712,138.297L177.712,138.297z"/>
<g>
	<path style="fill:#3E3E42;" d="M104.857,398.484h-30.8c-15.54,0-28.14-12.598-28.14-28.14l0,0h87.08l0,0
		C132.997,385.885,120.399,398.484,104.857,398.484z"/>
	<path style="fill:#3E3E42;" d="M438.709,398.484h-30.8c-15.54,0-28.14-12.598-28.14-28.14l0,0h87.08l0,0
		C466.849,385.885,454.251,398.484,438.709,398.484z"/>
</g>
<g>
	<path style="fill:#E1E1E3;" d="M321.478,138.297h-56.73l0,0c0-13.686,11.095-24.782,24.782-24.782h7.166
		C310.384,113.516,321.478,124.611,321.478,138.297L321.478,138.297z"/>
	<path style="fill:#E1E1E3;" d="M394.164,138.297h-56.73l0,0c0-13.686,11.095-24.782,24.782-24.782h7.166
		C383.068,113.516,394.164,124.611,394.164,138.297L394.164,138.297z"/>
	<path style="fill:#E1E1E3;" d="M466.849,138.297h-56.73l0,0c0-13.686,11.095-24.782,24.782-24.782h7.166
		C455.753,113.516,466.849,124.611,466.849,138.297L466.849,138.297z"/>
</g>
<path style="fill:#2C3E44;" d="M488.074,137.491H256.559v234.165h231.516c13.213,0,23.926-10.712,23.926-23.926V161.416
	C512,148.203,501.289,137.491,488.074,137.491z"/>
<path style="fill:#31AAEF;" d="M465.816,182.549v144.05H45.058v-144.05L465.816,182.549 M486.948,137.491H23.926
	C10.712,137.491,0,148.203,0,161.416v186.313c0,13.213,10.712,23.926,23.926,23.926h463.022c13.213,0,23.926-10.712,23.926-23.926
	V161.416C510.874,148.203,500.162,137.491,486.948,137.491L486.948,137.491z"/>
<path style="fill:#005A95;" d="M486.948,137.491H256.559v45.058h209.257v144.05H256.559v45.058h230.389
	c13.213,0,23.926-10.712,23.926-23.926V161.416C510.874,148.203,500.162,137.491,486.948,137.491z"/>
<g>
	<path style="fill:#E1E1E3;" d="M118.75,275.293v-30.176c0-19.587,12.185-26.874,27.899-26.874c15.715,0,28.014,7.288,28.014,26.874
		v30.176c0,19.587-12.299,26.874-28.014,26.874C130.934,302.168,118.75,294.88,118.75,275.293z M156.898,245.118
		c0-7.857-3.873-11.388-10.249-11.388c-6.376,0-10.135,3.531-10.135,11.388v30.176c0,7.857,3.759,11.388,10.135,11.388
		c6.378,0,10.249-3.531,10.249-11.388V245.118z"/>
	<path style="fill:#E1E1E3;" d="M182.854,246.142v-1.024c0-19.587,12.185-26.874,27.899-26.874c15.715,0,28.014,7.288,28.014,26.874
		v30.176c0,19.587-12.641,26.874-29.037,26.874c-19.245,0-26.874-11.957-26.874-21.408c0-5.466,2.619-7.173,8.312-7.173
		c4.897,0,9.224,1.251,9.224,6.489c0,4.328,4.555,6.605,9.907,6.605c6.719,0,10.703-3.531,10.703-11.388v-10.248
		c-3.643,3.986-8.767,5.01-14.235,5.01C193.785,270.055,182.854,264.362,182.854,246.142z M221.001,243.864
		c0-7.857-3.87-11.272-10.248-11.272c-6.378,0-10.135,3.415-10.135,11.272v1.026c0,8.312,3.757,11.5,10.248,11.5
		c6.15,0,10.135-2.96,10.135-10.476L221.001,243.864L221.001,243.864z"/>
	<path style="fill:#E1E1E3;" d="M265.271,262.198c0,4.669-3.986,8.767-8.654,8.767c-5.01,0-8.767-4.098-8.767-8.767
		c0-4.783,3.757-8.769,8.767-8.769C261.284,253.43,265.271,257.415,265.271,262.198z M265.271,293.4
		c0,4.669-3.986,8.767-8.654,8.767c-5.01,0-8.767-4.098-8.767-8.767c0-4.783,3.757-8.769,8.767-8.769
		C261.284,284.631,265.271,288.618,265.271,293.4z"/>
</g>
<g>
	<path style="fill:#ACACB2;" d="M273.259,275.293v-30.176c0-19.587,12.185-26.874,27.899-26.874
		c15.715,0,28.013,7.288,28.013,26.874v30.176c0,19.587-12.298,26.874-28.013,26.874
		C285.443,302.168,273.259,294.88,273.259,275.293z M311.408,245.118c0-7.857-3.873-11.388-10.25-11.388
		c-6.376,0-10.135,3.531-10.135,11.388v30.176c0,7.857,3.759,11.388,10.135,11.388c6.378,0,10.25-3.531,10.25-11.388V245.118z"/>
	<path style="fill:#ACACB2;" d="M338.047,275.293v-30.176c0-19.587,12.185-26.874,27.899-26.874
		c15.715,0,28.014,7.288,28.014,26.874v30.176c0,19.587-12.299,26.874-28.014,26.874
		C350.231,302.168,338.047,294.88,338.047,275.293z M376.195,245.118c0-7.857-3.873-11.388-10.25-11.388
		c-6.376,0-10.135,3.531-10.135,11.388v30.176c0,7.857,3.759,11.388,10.135,11.388c6.378,0,10.25-3.531,10.25-11.388V245.118z"/>
	<path style="fill:#ACACB2;" d="M256.559,270.963c0.019,0,0.037,0.003,0.056,0.003c4.669,0,8.656-4.099,8.656-8.768
		c0-4.783-3.986-8.768-8.656-8.768c-0.019,0-0.037,0.002-0.056,0.002V270.963z"/>
	<path style="fill:#ACACB2;" d="M256.615,284.631c-0.019,0-0.037,0.002-0.056,0.002v17.531c0.019,0,0.037,0.003,0.056,0.003
		c4.669,0,8.656-4.099,8.656-8.768C265.271,288.618,261.284,284.631,256.615,284.631z"/>
</g>
<g>
</g>
<g>
</g>
<g>
</g>
<g>
</g>
<g>
</g>
<g>
</g>
<g>
</g>
<g>
</g>
<g>
</g>
<g>
</g>
<g>
</g>
<g>
</g>
<g>
</g>
<g>
</g>
<g>
</g>
</svg>
