<?xml version="1.0" encoding="iso-8859-1"?>
<!-- Generator: Adobe Illustrator 19.0.0, SVG Export Plug-In . SVG Version: 6.00 Build 0)  -->
<svg version="1.1" id="Layer_1" xmlns="http://www.w3.org/2000/svg" xmlns:xlink="http://www.w3.org/1999/xlink" x="0px" y="0px"
	 viewBox="0 0 512.001 512.001" style="enable-background:new 0 0 512.001 512.001;" xml:space="preserve">
<g>
	<path style="fill:#707487;" d="M146.689,440.97l-14.693,58.771c-1.557,6.227,3.153,12.259,9.571,12.259l0,0
		c3.211,0,6.221-1.563,8.069-4.188l31.077-44.156L146.689,440.97z"/>
	<path style="fill:#707487;" d="M365.312,440.97l14.693,58.771c1.557,6.227-3.153,12.259-9.571,12.259l0,0
		c-3.211,0-6.221-1.563-8.069-4.188l-31.077-44.156L365.312,440.97z"/>
</g>
<g>
	<path style="fill:#5B5D6E;" d="M139.42,470.044c8.576,5.304,17.549,10.019,26.849,14.135l14.444-20.521l-34.024-22.687
		L139.42,470.044z"/>
	<path style="fill:#5B5D6E;" d="M365.312,440.97l-34.024,22.687l14.444,20.521c9.299-4.116,18.273-8.831,26.849-14.135
		L365.312,440.97z"/>
</g>
<rect x="247.121" y="50.299" style="fill:#C89650;" width="17.758" height="35.515"/>
<circle style="fill:#FFEAE0;" cx="256" cy="281.161" r="168.698"/>
<circle style="fill:#FFE0CC;" cx="256" cy="281.161" r="62.152"/>
<g>
	
		<rect x="124.329" y="81.313" transform="matrix(-0.5735 -0.8192 0.8192 -0.5735 134.2771 275.401)" style="fill:#C89650;" width="29" height="42.867"/>
	
		<rect x="359.941" y="80.575" transform="matrix(-0.5736 0.8192 -0.8192 -0.5736 671.5164 -145.407)" style="fill:#C89650;" width="27.329" height="43.016"/>
</g>
<path style="fill:#FFC855;" d="M273.758,59.179h-35.515c-4.903,0-8.879-3.976-8.879-8.879v-8.879c0-4.903,3.976-8.879,8.879-8.879
	h35.515c4.903,0,8.879,3.976,8.879,8.879V50.3C282.637,55.205,278.662,59.179,273.758,59.179z"/>
<path style="fill:#00BEA5;" d="M256.001,76.943c-112.784,0-204.214,91.43-204.214,204.214s91.43,204.214,204.214,204.214
	s204.214-91.43,204.214-204.214S368.784,76.943,256.001,76.943z M256.001,449.854c-93.169,0-168.698-75.529-168.698-168.698
	c0-93.17,75.529-168.698,168.698-168.698s168.698,75.528,168.698,168.698S349.17,449.854,256.001,449.854z"/>
<g>
	<path style="fill:#5B5D6E;" d="M256.001,156.852c-4.903,0-8.879-3.976-8.879-8.879v-26.637c0-4.903,3.975-8.879,8.879-8.879
		c4.903,0,8.879,3.976,8.879,8.879v26.637C264.88,152.877,260.904,156.852,256.001,156.852z"/>
	<path style="fill:#5B5D6E;" d="M256.001,449.854c-4.903,0-8.879-3.975-8.879-8.879v-26.637c0-4.903,3.975-8.879,8.879-8.879
		c4.903,0,8.879,3.976,8.879,8.879v26.637C264.88,445.879,260.904,449.854,256.001,449.854z"/>
	<path style="fill:#5B5D6E;" d="M122.818,290.035H96.181c-4.903,0-8.879-3.975-8.879-8.879s3.976-8.879,8.879-8.879h26.637
		c4.903,0,8.879,3.975,8.879,8.879S127.721,290.035,122.818,290.035z"/>
	<path style="fill:#5B5D6E;" d="M415.82,290.035h-26.637c-4.903,0-8.879-3.975-8.879-8.879s3.976-8.879,8.879-8.879h26.637
		c4.903,0,8.879,3.975,8.879,8.879S420.723,290.035,415.82,290.035z"/>
</g>
<g>
	<path style="fill:#959CB3;" d="M140.653,223.444c-1.504,0-3.03-0.382-4.431-1.188l-23.068-13.318
		c-4.249-2.454-5.701-7.882-3.252-12.131c2.454-4.244,7.86-5.714,12.131-3.252l23.068,13.318c4.249,2.454,5.701,7.882,3.252,12.131
		C146.705,221.853,143.723,223.444,140.653,223.444z"/>
	<path style="fill:#959CB3;" d="M394.399,369.945c-1.504,0-3.03-0.382-4.431-1.188L366.9,355.439
		c-4.249-2.454-5.701-7.882-3.252-12.131c2.454-4.249,7.864-5.706,12.131-3.252l23.068,13.318c4.249,2.454,5.701,7.882,3.252,12.131
		C400.451,368.354,397.469,369.945,394.399,369.945z"/>
	<path style="fill:#959CB3;" d="M176.082,428.442c-1.504,0-3.03-0.382-4.431-1.188c-4.249-2.454-5.701-7.882-3.252-12.131
		l13.318-23.068c2.454-4.253,7.869-5.71,12.131-3.252c4.249,2.454,5.701,7.882,3.252,12.131l-13.318,23.068
		C182.134,426.851,179.152,428.442,176.082,428.442z"/>
	<path style="fill:#959CB3;" d="M322.583,174.698c-1.504,0-3.03-0.382-4.431-1.188c-4.249-2.454-5.701-7.882-3.252-12.131
		l13.318-23.068c2.454-4.249,7.864-5.714,12.131-3.252c4.249,2.454,5.701,7.882,3.252,12.131l-13.318,23.068
		C328.635,173.106,325.653,174.698,322.583,174.698z"/>
	<path style="fill:#959CB3;" d="M371.347,223.444c-3.07,0-6.052-1.592-7.7-4.439c-2.449-4.249-0.997-9.677,3.252-12.131
		l23.068-13.318c4.253-2.463,9.677-0.993,12.131,3.252c2.449,4.249,0.997,9.677-3.252,12.131l-23.068,13.318
		C374.378,223.063,372.852,223.444,371.347,223.444z"/>
	<path style="fill:#959CB3;" d="M117.603,369.945c-3.07,0-6.052-1.592-7.7-4.439c-2.449-4.249-0.997-9.677,3.252-12.131
		l23.068-13.318c4.253-2.454,9.677-0.997,12.131,3.252c2.449,4.249,0.997,9.677-3.252,12.131l-23.068,13.318
		C120.633,369.564,119.107,369.945,117.603,369.945z"/>
	<path style="fill:#959CB3;" d="M335.919,428.442c-3.07,0-6.052-1.592-7.7-4.439l-13.318-23.068
		c-2.449-4.249-0.997-9.677,3.252-12.131c4.249-2.458,9.672-1.001,12.131,3.252l13.318,23.068c2.449,4.249,0.997,9.677-3.252,12.131
		C338.949,428.061,337.423,428.442,335.919,428.442z"/>
	<path style="fill:#959CB3;" d="M189.418,174.698c-3.07,0-6.052-1.592-7.7-4.439L168.4,147.19
		c-2.449-4.249-0.997-9.677,3.252-12.131c4.253-2.463,9.677-0.997,12.131,3.252l13.318,23.068c2.449,4.249,0.997,9.677-3.252,12.131
		C192.448,174.316,190.922,174.698,189.418,174.698z"/>
</g>
<g>
	<path style="fill:#464655;" d="M214.138,362.532c-1.504,0-3.03-0.382-4.431-1.188c-4.249-2.454-5.701-7.882-3.252-12.131
		l32.541-56.364c2.449-4.249,7.86-5.706,12.131-3.252c4.249,2.454,5.701,7.882,3.252,12.131l-32.541,56.364
		C220.19,360.94,217.208,362.532,214.138,362.532z"/>
	<path style="fill:#464655;" d="M256.001,272.277c-4.903,0-8.879-3.975-8.879-8.879v-79.91c0-4.903,3.975-8.879,8.879-8.879
		c4.903,0,8.879,3.976,8.879,8.879v79.91C264.88,268.302,260.904,272.277,256.001,272.277z"/>
</g>
<path style="fill:#FFD6B3;" d="M256.001,112.458c-93.169,0-168.698,75.528-168.698,168.698c0,93.169,75.529,168.698,168.698,168.698
	s168.698-75.529,168.698-168.698S349.17,112.458,256.001,112.458z M256.001,432.097c-83.361,0-150.94-67.579-150.94-150.94
	c0-83.362,67.579-150.94,150.94-150.94s150.94,67.578,150.94,150.94S339.362,432.097,256.001,432.097z"/>
<g>
	<circle style="fill:#FFC855;" cx="256" cy="281.161" r="22.197"/>
	<path style="fill:#FFC855;" d="M200.235,37.828c-28.089-40.102-83.56-49.869-123.662-21.802
		C36.47,44.11,26.689,99.586,54.769,139.688c1.353,1.929,3.412,3.243,5.731,3.65c0.516,0.091,1.032,0.134,1.544,0.134
		c1.808,0,3.589-0.555,5.094-1.604l130.915-91.672c1.929-1.353,3.243-3.416,3.65-5.731
		C202.112,42.146,201.582,39.757,200.235,37.828z"/>
	<path style="fill:#FFC855;" d="M435.429,16.026c-40.111-28.08-95.578-18.29-123.662,21.803c-1.348,1.929-1.877,4.318-1.469,6.637
		c0.407,2.315,1.721,4.378,3.65,5.731l130.915,91.672c1.504,1.049,3.286,1.604,5.094,1.604c0.512,0,1.028-0.043,1.544-0.134
		c2.32-0.407,4.378-1.721,5.731-3.65C485.311,99.586,475.53,44.11,435.429,16.026z"/>
</g>
<g>
	<path style="fill:#FFB44B;" d="M94.998,118.957C69.018,81.855,75.505,31.635,108.372,2.082c-11.105,2.435-21.921,7.03-31.8,13.944
		C36.47,44.11,26.689,99.586,54.769,139.688c1.353,1.929,3.412,3.243,5.731,3.65c0.516,0.091,1.032,0.134,1.544,0.134
		c1.808,0,3.589-0.555,5.094-1.604l29.913-20.946C96.289,120.358,95.553,119.749,94.998,118.957z"/>
	<path style="fill:#FFB44B;" d="M346.393,68.96c25.619-36.573,73.991-47.825,112.739-28.224
		c-6.054-9.437-13.965-17.892-23.703-24.712c-40.111-28.08-95.577-18.29-123.662,21.803c-1.348,1.929-1.877,4.318-1.469,6.637
		c0.407,2.315,1.721,4.378,3.65,5.731l31.117,21.789C345.322,70.914,345.75,69.881,346.393,68.96z"/>
</g>
<g>
</g>
<g>
</g>
<g>
</g>
<g>
</g>
<g>
</g>
<g>
</g>
<g>
</g>
<g>
</g>
<g>
</g>
<g>
</g>
<g>
</g>
<g>
</g>
<g>
</g>
<g>
</g>
<g>
</g>
</svg>
