<?xml version="1.0" encoding="iso-8859-1"?>
<!-- Generator: Adobe Illustrator 19.0.0, SVG Export Plug-In . SVG Version: 6.00 Build 0)  -->
<svg version="1.1" id="Layer_1" xmlns="http://www.w3.org/2000/svg" xmlns:xlink="http://www.w3.org/1999/xlink" x="0px" y="0px"
	 viewBox="0 0 512 512" style="enable-background:new 0 0 512 512;" xml:space="preserve">
<path style="fill:#FF5050;" d="M256,0C114.615,0,0,114.615,0,256s114.615,256,256,256s256-114.615,256-256S397.384,0,256,0z"/>
<path style="fill:#FFFFFF;" d="M388.741,218.074H123.259c-10.472,0-18.963,8.489-18.963,18.963v37.926
	c0,10.472,8.491,18.963,18.963,18.963h265.482c10.472,0,18.963-8.491,18.963-18.963v-37.926
	C407.704,226.564,399.213,218.074,388.741,218.074z"/>
<g>
	<path style="fill:#FF7873;" d="M441.916,153.805c-3.981,0-7.871-2.004-10.111-5.649c-16.185-26.338-38.5-49.102-64.546-65.819
		c-5.5-3.537-7.102-10.866-3.565-16.375c3.528-5.523,10.852-7.116,16.379-3.57c29.018,18.63,53.889,43.995,71.935,73.356
		c3.426,5.574,1.676,12.875-3.898,16.301C446.176,153.241,444.037,153.805,441.916,153.805z"/>
	<path style="fill:#FF7873;" d="M338.481,65.921c-1.5,0-3.019-0.287-4.481-0.884c-4.269-1.741-8.593-3.347-12.991-4.806
		c-6.213-2.06-9.574-8.768-7.519-14.982c2.055-6.208,8.731-9.598,14.982-7.519c4.898,1.625,9.741,3.417,14.491,5.361
		c6.065,2.477,8.964,9.399,6.491,15.454C347.573,63.138,343.148,65.921,338.481,65.921z"/>
</g>
<path style="fill:#C84146;" d="M302.617,465.382c-141.384,0-256-114.615-256-256c0-58.808,19.878-112.945,53.215-156.167
	C39.138,100.026,0,173.423,0,256c0,141.384,114.615,256,256,256c82.577,0,155.974-39.138,202.785-99.832
	C415.561,445.504,361.425,465.382,302.617,465.382z"/>
<g>
</g>
<g>
</g>
<g>
</g>
<g>
</g>
<g>
</g>
<g>
</g>
<g>
</g>
<g>
</g>
<g>
</g>
<g>
</g>
<g>
</g>
<g>
</g>
<g>
</g>
<g>
</g>
<g>
</g>
</svg>
