<?xml version="1.0" encoding="iso-8859-1"?>
<!-- Generator: Adobe Illustrator 19.0.0, SVG Export Plug-In . SVG Version: 6.00 Build 0)  -->
<svg version="1.1" id="Layer_1" xmlns="http://www.w3.org/2000/svg" xmlns:xlink="http://www.w3.org/1999/xlink" x="0px" y="0px"
	 viewBox="0 0 512.001 512.001" style="enable-background:new 0 0 512.001 512.001;" xml:space="preserve">
<path style="fill:#FF6465;" d="M256.001,512c141.384,0,255.999-114.615,255.999-256.001C512.001,114.615,397.386,0,256.001,0
	S0.001,114.615,0.001,256.001S114.616,512,256.001,512z"/>
<path style="opacity:0.1;enable-background:new    ;" d="M68.873,256.001c0-129.706,96.466-236.866,221.564-253.688
	C279.172,0.798,267.681,0,256.001,0C114.616,0,0.001,114.615,0.001,256.001S114.616,512.001,256,512.001
	c11.68,0,23.171-0.798,34.436-2.313C165.339,492.865,68.873,385.705,68.873,256.001z"/>
<path style="fill:#FFFFFF;" d="M313.391,256.001l67.398-67.398c4.899-4.899,4.899-12.842,0-17.74l-39.65-39.65
	c-4.899-4.899-12.842-4.899-17.74,0l-67.398,67.398l-67.398-67.398c-4.899-4.899-12.842-4.899-17.74,0l-39.65,39.65
	c-4.899,4.899-4.899,12.842,0,17.74l67.398,67.398l-67.398,67.398c-4.899,4.899-4.899,12.842,0,17.741l39.65,39.65
	c4.899,4.899,12.842,4.899,17.74,0l67.398-67.398L323.4,380.79c4.899,4.899,12.842,4.899,17.74,0l39.65-39.65
	c4.899-4.899,4.899-12.842,0-17.741L313.391,256.001z"/>
<g>
</g>
<g>
</g>
<g>
</g>
<g>
</g>
<g>
</g>
<g>
</g>
<g>
</g>
<g>
</g>
<g>
</g>
<g>
</g>
<g>
</g>
<g>
</g>
<g>
</g>
<g>
</g>
<g>
</g>
</svg>
