<?xml version="1.0" encoding="iso-8859-1"?>
<!-- Generator: Adobe Illustrator 19.0.0, SVG Export Plug-In . SVG Version: 6.00 Build 0)  -->
<svg version="1.1" id="Layer_1" xmlns="http://www.w3.org/2000/svg" xmlns:xlink="http://www.w3.org/1999/xlink" x="0px" y="0px"
	 viewBox="0 0 504.139 504.139" style="enable-background:new 0 0 504.139 504.139;" xml:space="preserve">
<path style="fill:#CC092E;" d="M497.16,140.694L363.425,6.967c-4.458-4.458-10.5-6.963-16.794-6.963H157.499
	c-6.309,0-12.351,2.505-16.809,6.963L6.963,140.694C2.505,145.152,0,151.194,0,157.503v189.133c0,6.302,2.505,12.343,6.963,16.801
	l133.734,133.734c4.45,4.458,10.5,6.963,16.809,6.963H346.64c6.294,0,12.335-2.497,16.794-6.955l133.742-133.734
	c4.45-4.458,6.963-10.5,6.963-16.809V157.503C504.123,151.194,501.618,145.152,497.16,140.694z"/>
<path style="fill:#E81542;" d="M66.773,80.892L6.963,140.694C2.505,145.152,0,151.194,0,157.503v189.133
	c0,6.302,2.505,12.343,6.963,16.801l133.734,133.734c4.45,4.458,10.5,6.963,16.809,6.963H346.64c6.294,0,12.335-2.497,16.794-6.955
	l59.809-59.809L66.773,80.892z"/>
<g>
	<path style="fill:#B2042E;" d="M86.355,247.15c-15.88-6.136-20.708-10.547-20.708-18.857c0-6.254,4.726-13.564,18.062-13.564
		c9.106,0,16.061,2.757,20.307,5.065c1.016,0.551,2.229,0.638,3.308,0.213c1.095-0.425,1.938-1.308,2.308-2.41l4.151-12.304
		c0.614-1.788-0.142-3.757-1.788-4.687c-4.104-2.324-13.17-6.231-27.766-6.231c-24.568,0-41.724,14.659-41.724,35.659
		c0,16.786,10.957,28.83,33.367,36.777c16.305,6.262,19.495,11.91,19.495,19.543c0,10.012-7.664,15.99-20.496,15.99
		c-8.476,0-17.818-2.631-24.986-7.042c-1.016-0.638-2.308-0.764-3.458-0.331c-1.142,0.433-2.016,1.371-2.371,2.544l-3.812,12.65
		c-0.488,1.662,0.142,3.45,1.583,4.419c7.168,4.773,20.338,8.113,31.996,8.113c30.988,0,44.843-18.865,44.843-37.565
		C118.674,267.268,109.001,255.902,86.355,247.15z"/>
	<path style="fill:#B2042E;" d="M225.816,196.281h-86.489c-2.166,0-3.938,1.764-3.938,3.938v12.824c0,2.174,1.772,3.938,3.938,3.938
		h31.602v100.053c0,2.174,1.757,3.938,3.938,3.938h15.25c2.182,0,3.938-1.764,3.938-3.938V216.982h31.768
		c2.182,0,3.938-1.764,3.938-3.938V200.22C229.754,198.046,227.998,196.281,225.816,196.281z"/>
	<path style="fill:#B2042E;" d="M298.772,194.375c-34.265,0-58.187,26.852-58.187,65.292c0,37.218,23.213,63.212,56.446,63.212
		c28.971,0,58.187-20.244,58.187-65.465C355.218,219.707,332.54,194.375,298.772,194.375z M297.905,302.698
		c-22.89,0-33.319-22.481-33.319-43.378c0-22.284,10.35-44.765,33.493-44.765c22.89,0,33.319,22.575,33.319,43.552
		C331.398,280.296,321.048,302.698,297.905,302.698z"/>
	<path style="fill:#B2042E;" d="M452.506,206.127c-7.893-7.113-19.803-10.713-35.383-10.713c-10.602,0-20.275,0.756-29.601,2.3
		c-1.89,0.315-3.293,1.961-3.293,3.883v115.428c0,2.174,1.772,3.938,3.938,3.938h15.092c2.166,0,3.938-1.764,3.938-3.938v-42.149
		c2.694,0.276,5.474,0.331,8.184,0.331c16.368,0,30.058-4.994,38.526-14.013c6.727-6.916,10.138-16.242,10.138-27.703
		C464.045,222.275,459.926,212.539,452.506,206.127z M415.736,255.208c-3.387,0-6.215-0.165-8.539-0.496v-38.904
		c2.402-0.315,5.845-0.551,10.264-0.551c10.784,0,23.631,3.285,23.631,18.936C441.092,252.475,425.196,255.208,415.736,255.208z"/>
</g>
<path style="fill:#FFFFFF;" d="M86.355,240.589c-15.88-6.136-20.708-10.547-20.708-18.857c0-6.254,4.726-13.564,18.062-13.564
	c9.106,0,16.061,2.757,20.307,5.065c1.016,0.551,2.229,0.638,3.308,0.213c1.095-0.425,1.938-1.308,2.308-2.41l4.151-12.304
	c0.614-1.788-0.142-3.757-1.788-4.687c-4.104-2.324-13.17-6.231-27.766-6.231c-24.568,0-41.724,14.659-41.724,35.659
	c0,16.786,10.957,28.83,33.367,36.777c16.305,6.262,19.495,11.91,19.495,19.543c0,10.012-7.664,15.99-20.496,15.99
	c-8.476,0-17.818-2.631-24.986-7.042c-1.016-0.638-2.308-0.764-3.458-0.331c-1.134,0.441-2.009,1.386-2.363,2.552l-3.812,12.65
	c-0.488,1.662,0.142,3.45,1.583,4.419c7.168,4.773,20.338,8.113,31.996,8.113c30.988,0,44.843-18.865,44.843-37.565
	C118.674,260.706,109.001,249.34,86.355,240.589z"/>
<path style="fill:#E0E0E0;" d="M225.816,189.72h-86.489c-2.166,0-3.938,1.764-3.938,3.938v12.824c0,2.174,1.772,3.938,3.938,3.938
	h31.602v100.053c0,2.174,1.757,3.938,3.938,3.938h15.25c2.182,0,3.938-1.764,3.938-3.938V210.42h31.768
	c2.182,0,3.938-1.764,3.938-3.938v-12.824C229.754,191.484,227.998,189.72,225.816,189.72z"/>
<path style="fill:#FFFFFF;" d="M175.592,189.72h-36.265c-2.166,0-3.938,1.764-3.938,3.938v12.824c0,2.174,1.772,3.938,3.938,3.938
	h31.602v100.053c0,2.174,1.757,3.938,3.938,3.938h15.25c2.182,0,3.938-1.764,3.938-3.938V210.42h2.245L175.592,189.72z"/>
<path style="fill:#E0E0E0;" d="M298.772,187.813c-34.265,0-58.187,26.852-58.187,65.292c0,37.218,23.213,63.212,56.446,63.212
	c28.971,0,58.187-20.244,58.187-65.465C355.218,213.146,332.54,187.813,298.772,187.813z M297.905,296.137
	c-22.89,0-33.319-22.481-33.319-43.378c0-22.284,10.35-44.765,33.493-44.765c22.89,0,33.319,22.575,33.319,43.552
	C331.398,273.735,321.048,296.137,297.905,296.137z"/>
<path style="fill:#FFFFFF;" d="M240.648,254.775c0.693,36.313,23.662,61.542,56.383,61.542c1.646,0,3.308-0.087,4.939-0.213
	L240.648,254.775z"/>
<path style="fill:#E0E0E0;" d="M452.506,199.566c-7.893-7.113-19.803-10.713-35.383-10.713c-10.602,0-20.275,0.756-29.601,2.3
	c-1.89,0.315-3.293,1.961-3.293,3.883v115.428c0,2.174,1.772,3.938,3.938,3.938h15.092c2.166,0,3.938-1.764,3.938-3.938v-42.149
	c2.694,0.276,5.474,0.331,8.184,0.331c16.368,0,30.058-4.994,38.526-14.013c6.727-6.916,10.138-16.242,10.138-27.703
	C464.045,215.714,459.926,205.978,452.506,199.566z M415.736,248.647c-3.387,0-6.215-0.165-8.539-0.496v-38.904
	c2.402-0.315,5.845-0.551,10.264-0.551c10.784,0,23.631,3.285,23.631,18.936C441.092,245.914,425.196,248.647,415.736,248.647z"/>
<g>
</g>
<g>
</g>
<g>
</g>
<g>
</g>
<g>
</g>
<g>
</g>
<g>
</g>
<g>
</g>
<g>
</g>
<g>
</g>
<g>
</g>
<g>
</g>
<g>
</g>
<g>
</g>
<g>
</g>
</svg>
