<?xml version="1.0" encoding="iso-8859-1"?>
<!-- Generator: Adobe Illustrator 19.0.0, SVG Export Plug-In . SVG Version: 6.00 Build 0)  -->
<svg version="1.1" id="Layer_1" xmlns="http://www.w3.org/2000/svg" xmlns:xlink="http://www.w3.org/1999/xlink" x="0px" y="0px"
	 viewBox="0 0 300 300" style="enable-background:new 0 0 300 300;" xml:space="preserve">
<g id="XMLID_894_">
	<path id="XMLID_895_" style="fill:#00347B;" d="M266.568,163.431c-4.795-4.795-10.506-8.111-16.568-9.962V100
		C250,44.771,205.229,0,150,0S50,44.771,50,100v53.469c-6.063,1.851-11.773,5.167-16.568,9.962
		c-15.621,15.622-15.621,40.947,0,56.569L50,203.432V210c0,35.891,18.911,67.359,47.309,85H150h52.691
		C231.089,277.359,250,245.891,250,210v-6.568L266.568,220C282.19,204.378,282.19,179.053,266.568,163.431z"/>
	<path id="XMLID_896_" style="fill:#001B3C;" d="M266.568,163.431c-4.795-4.795-10.506-8.111-16.568-9.962V100
		C250,44.771,205.229,0,150,0c0,63,0,218,0,295h52.691C231.089,277.359,250,245.891,250,210v-6.568L266.568,220
		C282.19,204.378,282.19,179.053,266.568,163.431z"/>
	<path id="XMLID_897_" style="fill:#FFFFFF;" d="M175,50c-9.796,0-18.648,4.029-25,10.515C143.647,54.029,134.796,50,125,50
		c-19.33,0-35,15.67-35,35v165c0,16.356,6.553,31.177,17.167,42h85.666C203.447,281.177,210,266.356,210,250V85
		C210,65.67,194.33,50,175,50z"/>
	<circle id="XMLID_898_" style="fill:#001B3C;" cx="120" cy="90" r="10"/>
	<circle id="XMLID_899_" style="fill:#001B3C;" cx="180" cy="90" r="10"/>
	<polygon id="XMLID_900_" style="fill:#FF9811;" points="150,110 120,130 150,160 180,130 	"/>
	<polygon id="XMLID_901_" style="fill:#FF5023;" points="150,110 180,130 150,160 	"/>
	<path id="XMLID_902_" style="fill:#FF9811;" d="M185,260c-15.064,0-28.178,8.331-35,20.634C143.178,268.331,130.064,260,115,260
		c-22.091,0-40,17.909-40,40h75h75C225,277.909,207.092,260,185,260z"/>
	<path id="XMLID_903_" style="fill:#FF5023;" d="M150,280.634C156.822,268.331,169.936,260,185,260c22.092,0,40,17.909,40,40h-75
		C150,300,150,291.667,150,280.634z"/>
</g>
<g>
</g>
<g>
</g>
<g>
</g>
<g>
</g>
<g>
</g>
<g>
</g>
<g>
</g>
<g>
</g>
<g>
</g>
<g>
</g>
<g>
</g>
<g>
</g>
<g>
</g>
<g>
</g>
<g>
</g>
</svg>
