<?xml version="1.0" encoding="iso-8859-1"?>
<!-- Generator: Adobe Illustrator 19.0.0, SVG Export Plug-In . SVG Version: 6.00 Build 0)  -->
<svg version="1.1" id="Layer_1" xmlns="http://www.w3.org/2000/svg" xmlns:xlink="http://www.w3.org/1999/xlink" x="0px" y="0px"
	 viewBox="0 0 512 512" style="enable-background:new 0 0 512 512;" xml:space="preserve">
<path style="fill:#5D5D5D;" d="M127.274,448.982c0,0-42.736,40.983-73.496,10.174C23.018,428.345,1.199,406.49,1.199,406.49
	s-8.483-37.645,19.703-64.053l82.749,82.884l0,0c0.941,0.942,2.467,0.941,3.406-0.001l268.13-268.564
	c8.655-11.672,17.967-20.998,27.597-32.45l27.568-32.413c13.043-15.337,26.084-30.671,39.127-46.007
	c2.802-3.296,3.198-3.873,7.702-4.315c10.779-1.056,22.252,1.91,28.578,11.342c2.303,3.433,3.75,7.374,4.624,11.399
	c0.979,4.508,2.441,11.61,1.037,16.076c-0.431,1.372-1.201,1.814-2.411,2.845c-5.608,4.785-11.215,9.569-16.823,14.354
	c-18.765,16.009-37.529,32.019-56.291,48.028c-12.728,10.86-25.455,21.719-38.182,32.578c-0.204,0.173-0.406,0.347-0.609,0.52
	v-0.001L129.062,447.188L127.274,448.982z"/>
<path style="fill:#FF3100;" d="M375.173,156.77l0.013-0.014c8.655-11.672,17.967-20.998,27.597-32.45l27.568-32.413
	c13.043-15.337,26.084-30.671,39.127-46.007c2.802-3.296,3.198-3.873,7.702-4.315c10.779-1.056,22.252,1.91,28.578,11.342
	c2.303,3.433,3.75,7.374,4.624,11.399c0.979,4.508,2.441,11.61,1.037,16.076c-0.431,1.372-1.201,1.814-2.411,2.845
	c-5.608,4.785-11.215,9.569-16.823,14.354c-18.765,16.009-37.529,32.019-56.291,48.028c-12.52,10.682-25.039,21.364-37.559,32.045
	L375.173,156.77z"/>
<path style="fill:#CACACA;" d="M384.728,448.982c0,0,42.736,40.983,73.495,10.174c30.76-30.811,52.58-52.666,52.58-52.666
	s8.481-37.645-19.704-64.053l-82.75,82.884l0,0c-0.939,0.941-2.464,0.942-3.403,0L136.814,156.756
	c-8.655-11.672-17.967-20.998-27.598-32.45L81.649,91.893C68.608,76.557,55.565,61.222,42.524,45.887
	c-2.803-3.296-3.198-3.873-7.702-4.315c-10.78-1.056-22.253,1.91-28.58,11.342c-2.303,3.433-3.75,7.374-4.625,11.399
	c-0.979,4.508-2.44,11.61-1.037,16.076c0.431,1.372,1.202,1.814,2.412,2.845c5.608,4.785,11.215,9.569,16.823,14.354
	c18.763,16.009,37.526,32.019,56.291,48.028c12.728,10.86,25.453,21.719,38.181,32.578c0.204,0.173,0.406,0.347,0.609,0.52v-0.001
	L382.937,447.19L384.728,448.982z"/>
<path style="fill:#FF3100;" d="M136.828,156.77l-0.014-0.014c-8.655-11.672-17.967-20.998-27.598-32.45L81.649,91.893
	C68.608,76.557,55.565,61.222,42.524,45.887c-2.803-3.296-3.198-3.873-7.702-4.315c-10.78-1.056-22.253,1.91-28.58,11.342
	c-2.303,3.433-3.75,7.374-4.625,11.399c-0.979,4.508-2.44,11.61-1.037,16.076c0.431,1.372,1.202,1.814,2.412,2.845
	c5.608,4.785,11.215,9.569,16.823,14.354c18.763,16.009,37.526,32.019,56.291,48.028c12.518,10.682,25.037,21.364,37.556,32.045
	L136.828,156.77z"/>
<path style="fill:#CACACA;" d="M81.486,450.534c-2.208,0-4.418-0.843-6.103-2.528l-50.056-50.057c-3.37-3.371-3.37-8.835,0-12.206
	c3.371-3.369,8.835-3.369,12.206,0l50.057,50.056c3.37,3.371,3.37,8.835,0,12.207C85.903,449.691,83.694,450.534,81.486,450.534z"/>
<path style="fill:#5D5D5D;" d="M430.516,450.534c-2.208,0-4.418-0.843-6.103-2.528c-3.37-3.371-3.37-8.835,0-12.207l50.057-50.056
	c3.371-3.369,8.835-3.369,12.206,0c3.37,3.371,3.37,8.835,0,12.206l-50.057,50.057C434.934,449.691,432.724,450.534,430.516,450.534
	z"/>
<g>
</g>
<g>
</g>
<g>
</g>
<g>
</g>
<g>
</g>
<g>
</g>
<g>
</g>
<g>
</g>
<g>
</g>
<g>
</g>
<g>
</g>
<g>
</g>
<g>
</g>
<g>
</g>
<g>
</g>
</svg>
