<?xml version="1.0" encoding="iso-8859-1"?>
<!-- Generator: Adobe Illustrator 19.0.0, SVG Export Plug-In . SVG Version: 6.00 Build 0)  -->
<svg version="1.1" id="Layer_1" xmlns="http://www.w3.org/2000/svg" xmlns:xlink="http://www.w3.org/1999/xlink" x="0px" y="0px"
	 viewBox="0 0 495 495" style="enable-background:new 0 0 495 495;" xml:space="preserve">
<path style="fill:#FFCD00;" d="M247.498,321.197c66.407,0,120.432-54.026,120.432-120.432c0-20.543-3.87-39.867-7.612-58.554
	c-7.226-36.088-14.676-73.392,10.68-109.235C334.649,12.005,292.473,0.004,247.493,0.004
	C247.493,0.004,247.493,321.197,247.498,321.197z"/>
<path style="fill:#FFCD00;" d="M403.909,55.698c-14.995,20.882-11.62,42.451-4.369,78.659c3.933,19.639,8.391,41.899,8.391,66.408
	c0,88.463-71.97,160.432-160.432,160.432c-0.005,0-0.005,133.799-0.005,133.799C384.185,494.996,495,384.188,495,247.503
	C495,170.143,459.499,101.083,403.909,55.698z"/>
<g>
	<path style="fill:#FFDE55;" d="M87.066,200.765c0-24.509,4.458-46.769,8.39-66.408c7.251-36.208,10.626-57.778-4.369-78.66
		C35.5,101.082,0,170.143,0,247.503c0,136.685,110.809,247.493,247.493,247.493V361.197
		C159.033,361.194,87.066,289.226,87.066,200.765z"/>
	<path style="fill:#FFDE55;" d="M134.678,142.211c-3.742,18.687-7.612,38.01-7.612,58.554c0,66.405,54.023,120.43,120.427,120.432
		V0.004c-44.976,0-87.149,12.001-123.496,32.971C149.354,68.818,141.905,106.123,134.678,142.211z"/>
	<path style="fill:#FFF5CC;" d="M399.54,134.357c-7.251-36.209-10.626-57.779,4.37-78.661c-3.419-2.792-6.914-5.494-10.481-8.104
		c-7.192-5.262-14.677-10.145-22.43-14.618c-25.357,35.844-17.908,73.148-10.681,109.237c3.742,18.687,7.612,38.01,7.612,58.554
		c0,66.406-54.025,120.432-120.432,120.432v40c88.462,0,160.432-71.969,160.432-160.432
		C407.93,176.256,403.473,153.996,399.54,134.357z"/>
	<path style="fill:#FFFFFF;" d="M127.066,200.765c0-20.543,3.87-39.867,7.612-58.554c7.227-36.089,14.676-73.394-10.682-109.239
		c-5.509,3.179-10.884,6.565-16.113,10.147c-5.78,3.958-11.383,8.156-16.797,12.576c14.997,20.882,11.622,42.452,4.37,78.662
		c-3.933,19.639-8.39,41.899-8.39,66.408c0,88.463,71.969,160.432,160.432,160.432v-40
		C181.092,321.197,127.066,267.171,127.066,200.765z"/>
</g>
<g>
</g>
<g>
</g>
<g>
</g>
<g>
</g>
<g>
</g>
<g>
</g>
<g>
</g>
<g>
</g>
<g>
</g>
<g>
</g>
<g>
</g>
<g>
</g>
<g>
</g>
<g>
</g>
<g>
</g>
</svg>
