<?xml version="1.0" encoding="iso-8859-1"?>
<!-- Generator: Adobe Illustrator 19.0.0, SVG Export Plug-In . SVG Version: 6.00 Build 0)  -->
<svg version="1.1" id="Layer_1" xmlns="http://www.w3.org/2000/svg" xmlns:xlink="http://www.w3.org/1999/xlink" x="0px" y="0px"
	 viewBox="0 0 512 512" style="enable-background:new 0 0 512 512;" xml:space="preserve">
<path style="fill:#E57500;" d="M496.377,44.388c-2.153-7.382-6.06-13.977-11.243-19.297c-5.354-5.491-12.063-9.626-19.616-11.87
	C422.139,0.315,375.742-2.955,329.801,2.593c-25.391,3.053-50.635,8.794-75.16,17.11c-53.539,18.101-103.627,48.356-144.169,89.308
	c-41.009,41.43-71.196,92.737-89.046,147.53c-8.065,24.731-13.613,50.179-16.517,75.753c-5.206,45.839-1.891,92.065,10.719,135.329
	c1.914,6.55,5.194,12.485,9.535,17.452c5.605,6.413,12.952,11.221,21.325,13.715c43.321,12.884,89.661,16.153,135.557,10.64
	c25.391-3.042,50.657-8.783,75.183-17.087c53.596-18.101,103.73-48.368,144.306-89.354c40.975-41.385,71.151-92.646,89.001-147.393
	c8.076-24.719,13.635-50.168,16.54-75.73C512.302,133.981,508.998,87.698,496.377,44.388z"/>
<path style="fill:#C06100;" d="M507.073,179.865c-2.905,25.562-8.464,51.011-16.54,75.73
	c-17.85,54.747-48.026,106.008-89.001,147.393c-40.576,40.986-90.71,71.253-144.306,89.354
	c-24.526,8.304-49.792,14.046-75.183,17.087c-45.896,5.513-92.236,2.244-135.557-10.64c-8.373-2.495-15.72-7.302-21.325-13.715
	L485.133,25.091c5.183,5.32,9.09,11.915,11.243,19.297C508.998,87.698,512.302,133.981,507.073,179.865z"/>
<g>
	<path style="fill:#FFFFFF;" d="M507.073,179.865c-2.905,25.562-8.464,51.011-16.54,75.73L254.64,19.703
		c24.526-8.316,49.769-14.057,75.16-17.11L507.073,179.865z"/>
	<path style="fill:#FFFFFF;" d="M257.226,492.342c-24.526,8.304-49.792,14.046-75.183,17.087L4.907,332.293
		c2.905-25.574,8.452-51.022,16.517-75.753L257.226,492.342z"/>
	<path style="fill:#FFFFFF;" d="M182.631,336.697c-2.172,0-4.345-0.824-6.01-2.472c-3.354-3.319-3.381-8.729-0.062-12.082
		l153.128-154.665c3.321-3.352,8.73-3.38,12.082-0.06c3.354,3.319,3.381,8.729,0.061,12.082L188.703,334.165
		C187.032,335.852,184.831,336.697,182.631,336.697z"/>
	<path style="fill:#FFFFFF;" d="M346.627,223.86c-2.201,0-4.4-0.845-6.072-2.532l-52.281-52.804
		c-3.319-3.352-3.293-8.762,0.062-12.082c3.351-3.319,8.761-3.294,12.082,0.06l52.281,52.804c3.319,3.352,3.293,8.762-0.061,12.082
		C350.973,223.036,348.8,223.86,346.627,223.86z"/>
	<path style="fill:#FFFFFF;" d="M306.323,264.569c-2.201,0-4.4-0.845-6.072-2.532l-52.281-52.804
		c-3.319-3.352-3.293-8.762,0.062-12.082c3.351-3.319,8.761-3.294,12.082,0.06l52.281,52.804c3.319,3.352,3.293,8.762-0.061,12.082
		C310.668,263.746,308.495,264.569,306.323,264.569z"/>
	<path style="fill:#FFFFFF;" d="M266.018,305.279c-2.201,0-4.401-0.845-6.072-2.532l-52.281-52.805
		c-3.319-3.352-3.293-8.762,0.062-12.082c3.352-3.319,8.761-3.294,12.082,0.06l52.281,52.804c3.319,3.352,3.293,8.762-0.062,12.082
		C270.363,304.455,268.19,305.279,266.018,305.279z"/>
	<path style="fill:#FFFFFF;" d="M225.712,345.988c-2.201,0-4.4-0.845-6.072-2.532l-52.28-52.805
		c-3.319-3.354-3.293-8.762,0.062-12.082c3.351-3.319,8.761-3.293,12.082,0.06l52.28,52.805c3.319,3.354,3.293,8.762-0.062,12.082
		C230.057,345.164,227.884,345.988,225.712,345.988z"/>
</g>
<g>
</g>
<g>
</g>
<g>
</g>
<g>
</g>
<g>
</g>
<g>
</g>
<g>
</g>
<g>
</g>
<g>
</g>
<g>
</g>
<g>
</g>
<g>
</g>
<g>
</g>
<g>
</g>
<g>
</g>
</svg>
