<?xml version="1.0" encoding="iso-8859-1"?>
<!-- Generator: Adobe Illustrator 19.0.0, SVG Export Plug-In . SVG Version: 6.00 Build 0)  -->
<svg version="1.1" id="Layer_1" xmlns="http://www.w3.org/2000/svg" xmlns:xlink="http://www.w3.org/1999/xlink" x="0px" y="0px"
	 viewBox="0 0 512.001 512.001" style="enable-background:new 0 0 512.001 512.001;" xml:space="preserve">
<path style="fill:#ECB300;" d="M454.013,55.809l2.628,2.613C426.087,28.065,385.91,8.193,343.09,2.382
	c-41.633-5.65-84.71,2.03-121.677,21.912c-20.125,10.822-37.428,25.118-53.23,41.461c-16.764,17.333-32.451,35.937-45.153,56.448
	c-17.658,28.514-24.077,61.651-24.077,95.233c0,0.627,0.18,1.277,0.272,1.95v152.469L0,470.439l16.106,16.003l9.04,8.981
	l16.108,16.003l99.224-98.587H313.63l0.021-0.383c58.313-1.006,112.04-45.148,149.841-87.4
	c15.579-17.414,27.262-36.762,36.027-59.012c2.921-8.707,4.854-15.691,7.292-24.49c4.369-15.782,5.189-56.065,5.189-56.065
	C509.254,138.35,490.753,89.012,454.013,55.809z"/>
<path style="fill:#FE633D;" d="M454.013,55.809l2.628,2.613C426.087,28.065,385.91,8.193,343.09,2.382
	c-41.633-5.65-84.71,2.03-121.677,21.912c-20.125,10.822-37.428,25.118-53.23,41.461c-16.764,17.333-32.451,35.937-45.153,56.448
	c-17.658,28.514-24.077,61.171-24.077,95.233c0,0.627,0.18,1.277,0.272,1.95v29.735L262.944,412.84h50.686l0.021-0.383
	c58.313-1.006,112.04-45.148,149.841-87.4c15.579-17.414,27.262-36.762,36.027-59.012c2.921-8.707,4.854-15.691,7.292-24.49
	c4.37-15.782,5.19-56.065,5.19-56.065C509.254,138.35,490.753,89.012,454.013,55.809z"/>
<path style="fill:#FF3100;" d="M454.013,55.809l2.628,2.613C426.087,28.065,385.91,8.193,343.09,2.382
	c-19.81-2.688-39.946-2.353-59.597,0.874c40.666,6.745,78.636,26.167,107.822,55.167l-2.628-2.613
	c36.74,33.203,55.243,82.54,57.987,129.681c0,0-0.82,40.283-5.19,56.067c-2.438,8.8-4.371,15.783-7.292,24.49
	c-8.764,22.251-20.448,41.599-36.027,59.012c-34.919,39.031-83.434,79.647-136.596,86.409l1.372,1.372h50.686l0.021-0.383
	c58.313-1.005,112.04-45.148,149.841-87.4c15.579-17.414,27.262-36.762,36.027-59.012c2.921-8.707,4.854-15.691,7.292-24.49
	c4.371-15.783,5.191-56.066,5.191-56.066C509.254,138.35,490.753,89.012,454.013,55.809z"/>
<g>
</g>
<g>
</g>
<g>
</g>
<g>
</g>
<g>
</g>
<g>
</g>
<g>
</g>
<g>
</g>
<g>
</g>
<g>
</g>
<g>
</g>
<g>
</g>
<g>
</g>
<g>
</g>
<g>
</g>
</svg>
