<?xml version="1.0" encoding="iso-8859-1"?>
<!-- Generator: Adobe Illustrator 19.0.0, SVG Export Plug-In . SVG Version: 6.00 Build 0)  -->
<svg version="1.1" id="Layer_1" xmlns="http://www.w3.org/2000/svg" xmlns:xlink="http://www.w3.org/1999/xlink" x="0px" y="0px"
	 viewBox="0 0 512.002 512.002" style="enable-background:new 0 0 512.002 512.002;" xml:space="preserve">
<path style="fill:#FF8800;" d="M442.822,430.811v0.012c-1.967,2.094-3.958,4.154-5.994,6.202s-4.108,4.039-6.202,6.006
	c-51.948,48.669-119.234,71.577-185.621,68.735c-5.661-0.242-11.322-0.667-16.959-1.289
	c-53.168-5.822-104.863-28.292-146.652-67.458c-1.979-1.841-3.923-3.728-5.856-5.649c-0.115-0.104-0.242-0.23-0.357-0.345
	c-2.037-2.036-4.038-4.108-5.994-6.202C30.079,388.988,7.631,337.224,1.821,283.987c-0.621-5.638-1.047-11.299-1.3-16.959
	c-0.966-22.712,1.059-45.517,6.11-67.792c9.688-42.905,30.536-83.796,62.545-118.025c1.956-2.106,3.958-4.177,6.006-6.225
	c2.037-2.037,4.096-4.038,6.19-5.983c51.948-48.692,119.245-71.6,185.633-68.77c5.661,0.253,11.322,0.679,16.959,1.3
	c53.202,5.822,104.932,28.316,146.721,67.504c2.071,1.944,4.119,3.923,6.144,5.948c0.184,0.184,0.368,0.368,0.541,0.552
	c1.875,1.887,3.705,3.785,5.5,5.718c31.974,34.229,52.811,75.098,62.51,117.968c2.152,9.515,3.751,19.134,4.809,28.799
	c0.621,5.638,1.047,11.299,1.289,16.959C514.33,311.451,491.445,378.805,442.822,430.811z"/>
<path style="fill:#FFA81E;" d="M505.379,199.224c-9.699,42.905-30.548,83.784-62.556,118.014v0.012
	c-1.967,2.094-3.958,4.154-5.994,6.202c-2.036,2.048-4.108,4.039-6.202,6.006c-51.948,48.669-119.234,71.577-185.621,68.735
	c-5.661-0.242-11.322-0.667-16.959-1.289c-53.168-5.822-104.863-28.292-146.652-67.458c-1.979-1.841-3.923-3.728-5.856-5.649
	c-0.115-0.104-0.242-0.23-0.357-0.345c-2.037-2.036-4.038-4.108-5.994-6.202C37.189,283.02,16.341,242.129,6.63,199.236
	c9.688-42.905,30.536-83.796,62.545-118.025c1.956-2.106,3.958-4.177,6.006-6.225c2.037-2.037,4.096-4.038,6.19-5.983
	c51.948-48.692,119.245-71.6,185.633-68.77c5.661,0.253,11.322,0.679,16.959,1.3c53.202,5.822,104.932,28.316,146.721,67.504
	c2.071,1.944,4.119,3.923,6.144,5.948c0.184,0.184,0.368,0.368,0.541,0.552c1.875,1.887,3.705,3.785,5.5,5.718
	C474.843,115.486,495.68,156.354,505.379,199.224z"/>
<g>
	<path style="fill:#E47500;" d="M511.477,244.983c-0.84,0.219-1.737,0.299-2.646,0.242c-68.493-4.729-135.641,19.215-185.598,65.882
		c-2.106,1.944-4.165,3.946-6.202,5.983c-2.036,2.048-4.039,4.119-5.994,6.225c-46.598,50.027-70.518,117.243-65.79,185.805
		c0.058,0.92-0.023,1.806-0.242,2.646c-5.661-0.242-11.322-0.667-16.959-1.289c-0.012-0.057-0.023-0.115-0.023-0.173
		c-5.063-73.544,20.676-145.651,70.806-199.198c1.956-2.105,3.958-4.177,5.994-6.213c2.036-2.036,4.108-4.039,6.202-6.006
		c53.501-50.188,125.539-75.949,199.003-70.887c0.058,0,0.104,0.012,0.161,0.023C510.81,233.661,511.235,239.322,511.477,244.983z"
		/>
	<path style="fill:#E47500;" d="M213.157,200.927c-1.944,2.094-3.935,4.154-5.971,6.19c-2.048,2.048-4.119,4.062-6.225,6.017
		C151.901,259.157,87.25,284.63,20.218,284.63c-6.064,0-12.139-0.207-18.237-0.621c-0.058,0-0.104-0.012-0.161-0.023
		c-0.621-5.638-1.047-11.299-1.3-16.959c0.84-0.219,1.737-0.299,2.658-0.242c68.482,4.729,135.629-19.215,185.587-65.87
		c2.106-1.956,4.177-3.958,6.213-5.994c2.037-2.037,4.027-4.108,5.983-6.202c46.61-50.027,70.53-117.255,65.801-185.828
		c-0.058-0.92,0.023-1.818,0.242-2.658c5.661,0.253,11.322,0.679,16.959,1.3c0.011,0.058,0.023,0.115,0.023,0.173
		C289.049,75.262,263.31,147.38,213.157,200.927z"/>
	<path style="fill:#E47500;" d="M442.868,81.257L268.223,256.04l-12.196,12.208L81.394,443.019
		c-1.979-1.841-3.923-3.728-5.856-5.649c-0.115-0.104-0.242-0.23-0.357-0.345c-2.037-2.036-4.038-4.108-5.994-6.202L243.831,256.04
		l12.196-12.208L430.684,69.037c2.071,1.944,4.119,3.923,6.144,5.948c0.184,0.184,0.368,0.368,0.541,0.552
		C439.244,77.425,441.073,79.324,442.868,81.257z"/>
	<path style="fill:#E47500;" d="M442.822,430.811v0.012c-1.967,2.094-3.958,4.154-5.994,6.202s-4.108,4.039-6.202,6.006
		l-119.59-119.717l-12.208-12.208l-42.801-42.859l-12.196-12.208l-42.87-42.905l-12.196-12.219L69.175,81.211
		c1.956-2.106,3.958-4.177,6.006-6.225c2.037-2.037,4.096-4.038,6.19-5.983l119.59,119.717l12.196,12.208l42.87,42.905
		l12.196,12.208l42.801,42.847l12.208,12.219L442.822,430.811z"/>
</g>
<g>
</g>
<g>
</g>
<g>
</g>
<g>
</g>
<g>
</g>
<g>
</g>
<g>
</g>
<g>
</g>
<g>
</g>
<g>
</g>
<g>
</g>
<g>
</g>
<g>
</g>
<g>
</g>
<g>
</g>
</svg>
