<?xml version="1.0" encoding="iso-8859-1"?>
<!-- Generator: Adobe Illustrator 19.0.0, SVG Export Plug-In . SVG Version: 6.00 Build 0)  -->
<svg version="1.1" id="Layer_1" xmlns="http://www.w3.org/2000/svg" xmlns:xlink="http://www.w3.org/1999/xlink" x="0px" y="0px"
	 viewBox="0 0 512 512" style="enable-background:new 0 0 512 512;" xml:space="preserve">
<path style="fill:#B4E5EA;" d="M382.455,134.029V8.258h-252.91v125.771c0,58.255,39.394,107.3,92.992,121.971
	c-53.599,14.671-92.992,63.716-92.992,121.971v125.771h252.909V377.971c0-58.255-39.394-107.3-92.992-121.971
	C343.061,241.329,382.455,192.283,382.455,134.029z"/>
<path style="fill:#609399;" d="M264.257,335.581V227.232c6.785-0.628,12.05-1.937,16.483-3.093
	c31.425-8.191,55.375-32.565,64.576-62.651l-178.634-0.002c9.201,30.087,33.15,54.461,64.576,62.653
	c4.433,1.155,9.698,2.464,16.483,3.093v108.349c-47.724,4.184-85.164,44.228-85.164,93.039v42.09h186.845v-42.09
	C349.423,379.809,311.982,339.764,264.257,335.581z"/>
<path d="M393.466,495.484h-2.753V377.971c0-52.745-30.923-100.094-77.465-121.971c46.542-21.876,77.465-69.226,77.465-121.971
	V16.516h2.753c4.561,0,8.258-3.696,8.258-8.258S398.027,0,393.466,0H118.534c-4.561,0-8.258,3.696-8.258,8.258
	s3.697,8.258,8.258,8.258h2.753v117.513c0,52.745,30.923,100.094,77.465,121.971c-46.542,21.876-77.465,69.226-77.465,121.971
	v117.513h-2.753c-4.561,0-8.258,3.696-8.258,8.258s3.697,8.258,8.258,8.258h274.931c4.561,0,8.258-3.696,8.258-8.258
	S398.027,495.484,393.466,495.484z M137.803,377.971c0-53.117,35.741-99.999,86.916-114.005c3.59-0.983,6.078-4.244,6.078-7.965
	c0-3.722-2.488-6.983-6.078-7.965c-51.175-14.007-86.916-60.888-86.916-114.005V16.516h236.393v117.513
	c0,53.117-35.741,99.999-86.914,114.005c-3.59,0.983-6.078,4.244-6.078,7.965c0,3.722,2.488,6.983,6.078,7.965
	c51.174,14.007,86.914,60.888,86.914,114.005v117.513H137.803V377.971z"/>
<path d="M282.921,339.353c-4.4-1.2-8.942,1.387-10.145,5.785c-1.205,4.4,1.386,8.942,5.785,10.146
	c36.861,10.089,62.604,43.869,62.604,82.145v25.023h-170.33v-25.023c0-38.278,25.743-72.055,62.603-82.145
	c4.399-1.205,6.99-5.746,5.785-10.146c-1.203-4.398-5.745-6.982-10.145-5.785c-44.018,12.048-74.759,52.379-74.759,98.076v33.281
	c0,4.562,3.697,8.258,8.258,8.258h186.845c4.561,0,8.258-3.696,8.258-8.258v-33.281
	C357.681,391.732,326.938,351.402,282.921,339.353z"/>
<path d="M247.742,298.851c0,4.562,3.697,8.258,8.258,8.258c4.561,0,8.258-3.696,8.258-8.258v-63.322
	c7.361-0.617,13.184-1.994,18.566-3.397c33.194-8.652,60.166-34.796,70.39-68.228c0.766-2.503,0.298-5.222-1.259-7.327
	c-1.558-2.104-4.02-3.346-6.638-3.346l-73.902-0.001c-4.561,0-8.258,3.697-8.258,8.258c0,4.561,3.697,8.258,8.258,8.258
	l61.939,0.001c-10.486,22.798-30.64,40.132-54.696,46.404c-5.182,1.351-12.278,3.201-22.658,3.201
	c-10.379,0-17.475-1.851-22.658-3.202c-24.057-6.27-44.21-23.605-54.696-46.405l61.939,0.001c4.561,0,8.258-3.697,8.258-8.258
	c0-4.561-3.697-8.258-8.258-8.258l-73.902-0.001c-2.617,0-5.081,1.242-6.638,3.346c-1.558,2.104-2.025,4.823-1.26,7.327
	c10.223,33.433,37.195,59.577,70.39,68.23c5.383,1.403,11.207,2.78,18.566,3.397v63.322H247.742z"/>
<path d="M256,323.625c-4.561,0-8.258,3.696-8.258,8.258v2.665c0,4.562,3.697,8.258,8.258,8.258c4.561,0,8.258-3.696,8.258-8.258
	v-2.665C264.258,327.321,260.561,323.625,256,323.625z"/>
<g>
</g>
<g>
</g>
<g>
</g>
<g>
</g>
<g>
</g>
<g>
</g>
<g>
</g>
<g>
</g>
<g>
</g>
<g>
</g>
<g>
</g>
<g>
</g>
<g>
</g>
<g>
</g>
<g>
</g>
</svg>
