<?xml version="1.0" encoding="iso-8859-1"?>
<!-- Generator: Adobe Illustrator 19.0.0, SVG Export Plug-In . SVG Version: 6.00 Build 0)  -->
<svg version="1.1" id="Capa_1" xmlns="http://www.w3.org/2000/svg" xmlns:xlink="http://www.w3.org/1999/xlink" x="0px" y="0px"
	 viewBox="0 0 470 470" style="enable-background:new 0 0 470 470;" xml:space="preserve">
<g>
	<path style="fill:#FFFFFF;" d="M355.894,368.259c23.526-28.213,36.483-63.953,36.483-100.637
		c0-86.778-70.599-157.377-157.377-157.377S77.623,180.845,77.623,267.623C77.623,354.401,148.222,425,235,425
		c36.685,0,72.424-12.957,100.636-36.484c3.139-2.618,7.781-2.229,10.452,0.836c3.705-3.385,7.256-6.935,10.64-10.641
		C353.663,376.04,353.276,371.398,355.894,368.259z M369.877,260.123c4.143,0,7.5,3.358,7.5,7.5s-3.357,7.5-7.5,7.5h-10
		c-4.143,0-7.5-3.358-7.5-7.5s3.357-7.5,7.5-7.5H369.877z M339.396,198.689l8.66-5c3.586-2.072,8.173-0.842,10.245,2.745
		c2.071,3.587,0.842,8.174-2.745,10.245l-8.66,5c-1.181,0.682-2.471,1.006-3.743,1.006c-2.592,0-5.112-1.345-6.502-3.751
		C334.58,205.347,335.81,200.76,339.396,198.689z M290.943,155.726l5-8.66c2.07-3.588,6.655-4.818,10.245-2.745
		c3.587,2.071,4.816,6.658,2.745,10.245l-5,8.66c-1.389,2.406-3.91,3.751-6.502,3.751c-1.272,0-2.562-0.324-3.743-1.006
		C290.102,163.9,288.872,159.313,290.943,155.726z M227.5,132.746c0-4.142,3.357-7.5,7.5-7.5s7.5,3.358,7.5,7.5v10
		c0,4.142-3.357,7.5-7.5,7.5s-7.5-3.358-7.5-7.5V132.746z M163.812,144.321c3.585-2.072,8.173-0.843,10.245,2.745l5,8.66
		c2.071,3.587,0.842,8.174-2.745,10.245c-1.181,0.682-2.471,1.006-3.743,1.006c-2.592,0-5.112-1.345-6.502-3.751l-5-8.66
		C158.995,150.979,160.225,146.392,163.812,144.321z M100.123,275.123c-4.143,0-7.5-3.358-7.5-7.5s3.357-7.5,7.5-7.5h10
		c4.143,0,7.5,3.358,7.5,7.5s-3.357,7.5-7.5,7.5H100.123z M130.604,336.557l-8.66,5c-1.181,0.682-2.471,1.006-3.743,1.006
		c-2.592,0-5.112-1.345-6.502-3.751c-2.071-3.587-0.842-8.174,2.745-10.245l8.66-5c3.586-2.071,8.174-0.842,10.245,2.745
		S134.19,334.486,130.604,336.557z M133.349,208.934c-1.389,2.406-3.91,3.751-6.502,3.751c-1.272,0-2.562-0.324-3.743-1.006l-8.66-5
		c-3.587-2.071-4.816-6.658-2.745-10.245c2.07-3.588,6.655-4.818,10.245-2.745l8.66,5C134.19,200.76,135.42,205.347,133.349,208.934
		z M179.057,379.52l-5,8.66c-1.389,2.406-3.91,3.751-6.502,3.751c-1.272,0-2.562-0.324-3.743-1.006
		c-3.587-2.071-4.816-6.658-2.745-10.245l5-8.66c2.069-3.587,6.655-4.817,10.245-2.745
		C179.898,371.345,181.128,375.932,179.057,379.52z M242.5,402.5c0,4.142-3.357,7.5-7.5,7.5s-7.5-3.358-7.5-7.5v-10
		c0-4.142,3.357-7.5,7.5-7.5s7.5,3.358,7.5,7.5V402.5z M306.188,390.925c-1.181,0.682-2.471,1.006-3.743,1.006
		c-2.592,0-5.112-1.345-6.502-3.751l-5-8.66c-2.071-3.587-0.842-8.174,2.745-10.245c3.586-2.071,8.174-0.842,10.245,2.745l5,8.66
		C311.005,384.267,309.775,388.854,306.188,390.925z M329.877,275.123H257.5V322.5c0,12.407-10.094,22.5-22.5,22.5
		s-22.5-10.093-22.5-22.5v-45.557l-56.963-56.963c-8.771-8.773-8.771-23.047,0-31.82c4.25-4.25,9.9-6.59,15.91-6.59
		s11.66,2.341,15.91,6.59l63.553,63.553c0.095,0.095,0.178,0.196,0.267,0.295c2.214,2.293,3.947,5.051,5.033,8.115h73.667
		c4.143,0,7.5,3.358,7.5,7.5S334.02,275.123,329.877,275.123z M348.057,341.557l-8.66-5c-3.587-2.071-4.816-6.658-2.745-10.245
		c2.069-3.588,6.655-4.817,10.245-2.745l8.66,5c3.587,2.071,4.816,6.658,2.745,10.245c-1.389,2.406-3.91,3.751-6.502,3.751
		C350.527,342.563,349.238,342.239,348.057,341.557z"/>
	<path style="fill:#BD1515;" d="M235,275.123c4.136,0,7.5-3.364,7.5-7.5s-3.364-7.5-7.5-7.5s-7.5,3.364-7.5,7.5
		S230.864,275.123,235,275.123z"/>
	<path style="fill:#FFCC75;" d="M214.699,257.928c2.22-4.629,5.977-8.386,10.606-10.606l-48.555-48.555
		c-1.416-1.417-3.3-2.197-5.303-2.197s-3.887,0.78-5.303,2.197c-2.925,2.924-2.925,7.683,0,10.607L214.699,257.928z"/>
	<path style="fill:#F2484B;" d="M242.5,288.833c-2.347,0.833-4.871,1.29-7.5,1.29s-5.153-0.458-7.5-1.29V322.5
		c0,4.136,3.364,7.5,7.5,7.5s7.5-3.364,7.5-7.5V288.833z"/>
	<path style="fill:#F2484B;" d="M235,80.246c-103.32,0-187.377,84.057-187.377,187.377C47.623,370.943,131.68,455,235,455
		s187.377-84.057,187.377-187.377C422.377,164.303,338.32,80.246,235,80.246z M367.413,377.866
		c-2.652,3.182-7.379,3.611-10.563,0.957c-0.042-0.036-0.079-0.075-0.121-0.112c-3.384,3.706-6.935,7.256-10.64,10.641
		c0.036,0.041,0.076,0.078,0.111,0.12c2.653,3.181,2.225,7.911-0.956,10.563C314.34,425.807,275.188,440,235,440
		c-95.049,0-172.377-77.328-172.377-172.377c0-95.049,77.328-172.377,172.377-172.377s172.377,77.328,172.377,172.377
		C407.377,307.81,393.185,346.961,367.413,377.866z"/>
	<path style="fill:#F2484B;" d="M417.935,69.436c-2.689-17.017-11.846-31.969-25.78-42.1C381.054,19.266,367.959,15,354.284,15
		c-18.081,0-35.331,7.651-47.461,20.77l103.635,75.346C417.582,98.502,420.23,83.959,417.935,69.436z"/>
	<path style="fill:#F2484B;" d="M163.177,35.77C151.047,22.651,133.797,15,115.716,15c-13.675,0-26.77,4.266-37.87,12.336
		c-13.935,10.131-23.091,25.083-25.78,42.1c-2.296,14.523,0.353,29.066,7.477,41.68L163.177,35.77z"/>
	<path style="fill:#082947;" d="M242.5,65.399V50.246H255c4.143,0,7.5-3.358,7.5-7.5s-3.357-7.5-7.5-7.5h-40
		c-4.143,0-7.5,3.358-7.5,7.5s3.357,7.5,7.5,7.5h12.5v15.153C119.372,69.36,32.623,158.544,32.623,267.623
		C32.623,379.214,123.409,470,235,470s202.377-90.786,202.377-202.377C437.377,158.544,350.628,69.36,242.5,65.399z M235,455
		c-103.32,0-187.377-84.057-187.377-187.377c0-103.32,84.057-187.377,187.377-187.377s187.377,84.057,187.377,187.377
		C422.377,370.943,338.32,455,235,455z"/>
	<path style="fill:#082947;" d="M57.545,129.345c1.529,0,3.073-0.466,4.404-1.434l116.472-84.678
		c1.609-1.17,2.688-2.931,2.998-4.896s-0.172-3.973-1.342-5.581C165.165,12.245,141.104,0,115.716,0
		c-16.865,0-33.01,5.257-46.69,15.203C51.85,27.69,40.564,46.119,37.249,67.094c-3.315,20.975,1.736,41.985,14.224,59.161
		C52.94,128.273,55.227,129.345,57.545,129.345z M52.065,69.436c2.689-17.017,11.846-31.969,25.78-42.1
		C88.946,19.266,102.041,15,115.716,15c18.081,0,35.331,7.651,47.461,20.77L59.542,111.116
		C52.418,98.502,49.77,83.959,52.065,69.436z"/>
	<path style="fill:#082947;" d="M291.579,43.232l116.472,84.678c1.331,0.968,2.875,1.434,4.404,1.434
		c2.318,0,4.604-1.071,6.072-3.09c12.487-17.176,17.539-38.186,14.224-59.161c-3.315-20.975-14.601-39.403-31.776-51.891
		C387.294,5.257,371.149,0,354.284,0c-25.389,0-49.449,12.245-64.361,32.756c-1.17,1.608-1.652,3.616-1.342,5.581
		S289.97,42.063,291.579,43.232z M354.284,15c13.675,0,26.77,4.266,37.87,12.336c13.935,10.131,23.091,25.083,25.78,42.1
		c2.296,14.523-0.353,29.066-7.477,41.68L306.823,35.77C318.953,22.651,336.203,15,354.284,15z"/>
	<path style="fill:#082947;" d="M235,150.246c4.143,0,7.5-3.358,7.5-7.5v-10c0-4.142-3.357-7.5-7.5-7.5s-7.5,3.358-7.5,7.5v10
		C227.5,146.888,230.857,150.246,235,150.246z"/>
	<path style="fill:#082947;" d="M166.066,163.226c1.39,2.406,3.91,3.751,6.502,3.751c1.272,0,2.563-0.324,3.743-1.006
		c3.587-2.071,4.816-6.658,2.745-10.245l-5-8.66c-2.072-3.588-6.66-4.817-10.245-2.745c-3.587,2.071-4.816,6.658-2.745,10.245
		L166.066,163.226z"/>
	<path style="fill:#082947;" d="M130.604,198.689l-8.66-5c-3.59-2.073-8.175-0.843-10.245,2.745
		c-2.071,3.587-0.842,8.174,2.745,10.245l8.66,5c1.182,0.682,2.471,1.006,3.743,1.006c2.592,0,5.113-1.345,6.502-3.751
		C135.42,205.347,134.19,200.76,130.604,198.689z"/>
	<path style="fill:#082947;" d="M117.623,267.623c0-4.142-3.357-7.5-7.5-7.5h-10c-4.143,0-7.5,3.358-7.5,7.5s3.357,7.5,7.5,7.5h10
		C114.266,275.123,117.623,271.765,117.623,267.623z"/>
	<path style="fill:#082947;" d="M123.104,323.566l-8.66,5c-3.587,2.071-4.816,6.658-2.745,10.245c1.39,2.406,3.91,3.751,6.502,3.751
		c1.272,0,2.563-0.324,3.743-1.006l8.66-5c3.587-2.071,4.816-6.658,2.745-10.245S126.689,321.495,123.104,323.566z"/>
	<path style="fill:#082947;" d="M176.312,369.274c-3.59-2.072-8.176-0.842-10.245,2.745l-5,8.66
		c-2.071,3.587-0.842,8.174,2.745,10.245c1.182,0.682,2.471,1.006,3.743,1.006c2.592,0,5.113-1.345,6.502-3.751l5-8.66
		C181.128,375.932,179.898,371.345,176.312,369.274z"/>
	<path style="fill:#082947;" d="M235,385c-4.143,0-7.5,3.358-7.5,7.5v10c0,4.142,3.357,7.5,7.5,7.5s7.5-3.358,7.5-7.5v-10
		C242.5,388.358,239.143,385,235,385z"/>
	<path style="fill:#082947;" d="M303.934,372.02c-2.071-3.587-6.659-4.816-10.245-2.745c-3.587,2.071-4.816,6.658-2.745,10.245
		l5,8.66c1.39,2.406,3.91,3.751,6.502,3.751c1.272,0,2.563-0.324,3.743-1.006c3.587-2.071,4.816-6.658,2.745-10.245L303.934,372.02z
		"/>
	<path style="fill:#082947;" d="M358.302,338.812c2.071-3.587,0.842-8.174-2.745-10.245l-8.66-5
		c-3.59-2.072-8.176-0.843-10.245,2.745c-2.071,3.587-0.842,8.174,2.745,10.245l8.66,5c1.182,0.682,2.471,1.006,3.743,1.006
		C354.392,342.563,356.913,341.218,358.302,338.812z"/>
	<path style="fill:#082947;" d="M352.377,267.623c0,4.142,3.357,7.5,7.5,7.5h10c4.143,0,7.5-3.358,7.5-7.5s-3.357-7.5-7.5-7.5h-10
		C355.734,260.123,352.377,263.48,352.377,267.623z"/>
	<path style="fill:#082947;" d="M343.153,212.686c1.272,0,2.563-0.324,3.743-1.006l8.66-5c3.587-2.071,4.816-6.658,2.745-10.245
		c-2.072-3.587-6.659-4.817-10.245-2.745l-8.66,5c-3.587,2.071-4.816,6.658-2.745,10.245
		C338.041,211.34,340.562,212.686,343.153,212.686z"/>
	<path style="fill:#082947;" d="M293.688,165.971c1.182,0.682,2.471,1.006,3.743,1.006c2.592,0,5.113-1.345,6.502-3.751l5-8.66
		c2.071-3.587,0.842-8.174-2.745-10.245c-3.59-2.073-8.175-0.843-10.245,2.745l-5,8.66
		C288.872,159.313,290.102,163.9,293.688,165.971z"/>
	<path style="fill:#082947;" d="M329.877,260.123H256.21c-1.087-3.063-2.819-5.822-5.033-8.115c-0.089-0.099-0.172-0.2-0.267-0.295
		l-63.553-63.553c-4.25-4.25-9.9-6.59-15.91-6.59s-11.66,2.341-15.91,6.59c-8.771,8.773-8.771,23.047,0,31.82l56.963,56.963V322.5
		c0,12.407,10.094,22.5,22.5,22.5s22.5-10.093,22.5-22.5v-47.377h72.377c4.143,0,7.5-3.358,7.5-7.5S334.02,260.123,329.877,260.123z
		 M235,330c-4.136,0-7.5-3.364-7.5-7.5v-33.667c2.347,0.833,4.871,1.29,7.5,1.29s5.153-0.458,7.5-1.29V322.5
		C242.5,326.636,239.136,330,235,330z M227.5,267.623c0-4.136,3.364-7.5,7.5-7.5s7.5,3.364,7.5,7.5s-3.364,7.5-7.5,7.5
		S227.5,271.758,227.5,267.623z M166.145,198.767c1.416-1.417,3.3-2.197,5.303-2.197s3.887,0.78,5.303,2.197l48.555,48.555
		c-4.629,2.22-8.386,5.977-10.606,10.606l-48.554-48.554C163.22,206.449,163.22,201.691,166.145,198.767z"/>
	<path style="fill:#082947;" d="M235,95.246c-95.049,0-172.377,77.328-172.377,172.377C62.623,362.672,139.951,440,235,440
		c40.188,0,79.34-14.193,110.243-39.965c3.181-2.653,3.609-7.382,0.956-10.563c-0.035-0.042-0.075-0.079-0.111-0.12
		c-2.671-3.065-7.313-3.454-10.452-0.836C307.424,412.043,271.685,425,235,425c-86.778,0-157.377-70.599-157.377-157.377
		c0-86.778,70.599-157.377,157.377-157.377s157.377,70.599,157.377,157.377c0,36.684-12.957,72.423-36.483,100.637
		c-2.618,3.139-2.23,7.78,0.835,10.452c0.042,0.037,0.079,0.076,0.121,0.112c3.185,2.654,7.911,2.225,10.563-0.957
		c25.771-30.904,39.964-70.056,39.964-110.243C407.377,172.574,330.049,95.246,235,95.246z"/>
</g>
<g>
</g>
<g>
</g>
<g>
</g>
<g>
</g>
<g>
</g>
<g>
</g>
<g>
</g>
<g>
</g>
<g>
</g>
<g>
</g>
<g>
</g>
<g>
</g>
<g>
</g>
<g>
</g>
<g>
</g>
</svg>
