<?xml version="1.0" encoding="iso-8859-1"?>
<!-- Generator: Adobe Illustrator 19.0.0, SVG Export Plug-In . SVG Version: 6.00 Build 0)  -->
<svg version="1.1" id="Capa_1" xmlns="http://www.w3.org/2000/svg" xmlns:xlink="http://www.w3.org/1999/xlink" x="0px" y="0px"
	 viewBox="0 0 53 53" style="enable-background:new 0 0 53 53;" xml:space="preserve">
<path style="fill:#BDC3C7;" d="M52.168,27.73c-11.852,5.935-26.271,1.138-32.206-10.714C17.214,11.528,16.771,5.491,18.26,0
	C6.996,6.172,2.544,20.2,8.343,31.781c5.935,11.852,20.354,16.649,32.206,10.714c6.364-3.187,10.69-8.821,12.417-15.19
	C52.702,27.449,52.439,27.594,52.168,27.73z"/>
<g>
	<path style="fill:#FFFFFF;" d="M13.035,39c0.256,0,0.512-0.098,0.707-0.293l3-3c0.391-0.391,0.391-1.023,0-1.414
		s-1.023-0.391-1.414,0l-3,3c-0.391,0.391-0.391,1.023,0,1.414C12.523,38.902,12.779,39,13.035,39z"/>
	<path style="fill:#FFFFFF;" d="M19.035,33c0.256,0,0.512-0.098,0.707-0.293l3-3c0.391-0.391,0.391-1.023,0-1.414
		s-1.023-0.391-1.414,0l-3,3c-0.391,0.391-0.391,1.023,0,1.414C18.523,32.902,18.779,33,19.035,33z"/>
	<path style="fill:#E6E7E8;" d="M9.327,48.293l-3,3c-0.391,0.391-0.391,1.023,0,1.414C6.523,52.902,6.779,53,7.035,53
		s0.512-0.098,0.707-0.293l3-3c0.391-0.391,0.391-1.023,0-1.414S9.718,47.902,9.327,48.293z"/>
	<path style="fill:#E6E7E8;" d="M16.742,42.293c-0.391-0.391-1.023-0.391-1.414,0l-3,3c-0.391,0.391-0.391,1.023,0,1.414
		C12.523,46.902,12.779,47,13.035,47s0.512-0.098,0.707-0.293l3-3C17.132,43.316,17.132,42.684,16.742,42.293z"/>
	<path style="fill:#FFFFFF;" d="M19.035,41c0.256,0,0.512-0.098,0.707-0.293l3-3c0.391-0.391,0.391-1.023,0-1.414
		s-1.023-0.391-1.414,0l-3,3c-0.391,0.391-0.391,1.023,0,1.414C18.523,40.902,18.779,41,19.035,41z"/>
	<path style="fill:#E6E7E8;" d="M9.327,32.293l-3,3c-0.391,0.391-0.391,1.023,0,1.414C6.523,36.902,6.779,37,7.035,37
		s0.512-0.098,0.707-0.293l3-3c0.391-0.391,0.391-1.023,0-1.414S9.718,31.902,9.327,32.293z"/>
	<path style="fill:#E6E7E8;" d="M3.327,38.293l-3,3c-0.391,0.391-0.391,1.023,0,1.414C0.523,42.902,0.779,43,1.035,43
		s0.512-0.098,0.707-0.293l3-3c0.391-0.391,0.391-1.023,0-1.414S3.718,37.902,3.327,38.293z"/>
	<path style="fill:#E6E7E8;" d="M9.327,40.293l-3,3c-0.391,0.391-0.391,1.023,0,1.414C6.523,44.902,6.779,45,7.035,45
		s0.512-0.098,0.707-0.293l3-3c0.391-0.391,0.391-1.023,0-1.414S9.718,39.902,9.327,40.293z"/>
	<path style="fill:#E6E7E8;" d="M3.327,46.293l-3,3c-0.391,0.391-0.391,1.023,0,1.414C0.523,50.902,0.779,51,1.035,51
		s0.512-0.098,0.707-0.293l3-3c0.391-0.391,0.391-1.023,0-1.414S3.718,45.902,3.327,46.293z"/>
	<path style="fill:#FFFFFF;" d="M13.035,31c0.256,0,0.512-0.098,0.707-0.293l3-3c0.391-0.391,0.391-1.023,0-1.414
		s-1.023-0.391-1.414,0l-3,3c-0.391,0.391-0.391,1.023,0,1.414C12.523,30.902,12.779,31,13.035,31z"/>
	<path style="fill:#E6E7E8;" d="M18.327,47.293l-3,3c-0.391,0.391-0.391,1.023,0,1.414C15.523,51.902,15.779,52,16.035,52
		s0.512-0.098,0.707-0.293l3-3c0.391-0.391,0.391-1.023,0-1.414S18.718,46.902,18.327,47.293z"/>
	<path style="fill:#FFFFFF;" d="M25.742,41.293c-0.391-0.391-1.023-0.391-1.414,0l-3,3c-0.391,0.391-0.391,1.023,0,1.414
		C21.523,45.902,21.779,46,22.035,46s0.512-0.098,0.707-0.293l3-3C26.132,42.316,26.132,41.684,25.742,41.293z"/>
</g>
<g>
</g>
<g>
</g>
<g>
</g>
<g>
</g>
<g>
</g>
<g>
</g>
<g>
</g>
<g>
</g>
<g>
</g>
<g>
</g>
<g>
</g>
<g>
</g>
<g>
</g>
<g>
</g>
<g>
</g>
</svg>
