<?xml version="1.0" encoding="iso-8859-1"?>
<!-- Generator: Adobe Illustrator 19.0.0, SVG Export Plug-In . SVG Version: 6.00 Build 0)  -->
<svg version="1.1" id="Capa_1" xmlns="http://www.w3.org/2000/svg" xmlns:xlink="http://www.w3.org/1999/xlink" x="0px" y="0px"
	 viewBox="0 0 60.003 60.003" style="enable-background:new 0 0 60.003 60.003;" xml:space="preserve">
<path style="fill:#F0C419;" d="M36.116,14.728l-0.958-1.588c-3.074-5.096-8.447-8.139-14.373-8.139
	c-9.26,0-16.793,7.533-16.793,16.793c0,5.284,2.547,10.324,6.815,13.481l0.651,0.481l0.805,0.089
	c0.529,0.058,1.033,0.163,1.497,0.313l4.97,1.597l-1.123-5.098c-0.267-1.214,0.029-2.454,0.813-3.406
	c0.763-0.926,1.889-1.457,3.091-1.457c0.412,0,0.818,0.063,1.177,0.177l2.69,0.897l1.047-2.636c0.485-1.22,1.532-2.127,2.799-2.425
	c0.45-0.105,0.933-0.128,1.396-0.071l3.5,0.422l-0.144-3.523l-0.021-0.341c0-1.411,0.403-2.795,1.167-3.999L36.116,14.728z"/>
<path style="fill:#D0E8F9;" d="M59.979,27.002h-0.081c0.035,0.304,0.059,0.611,0.059,0.925c0,0.553-0.447,1-1,1s-1-0.447-1-1
	c0-3.309-2.691-6-6-6s-6,2.691-6,6c0,0.553-0.447,1-1,1s-1-0.447-1-1c0-4.064,3.049-7.423,6.978-7.927
	c-0.226-5.039-4.384-9.073-9.478-9.073c-5.111,0-9.281,4.06-9.481,9.123c0.829,0.196,1.632,0.52,2.378,0.981
	c1.816,1.125,3.086,2.89,3.576,4.97c0.126,0.538-0.207,1.076-0.744,1.203c-0.538,0.121-1.076-0.207-1.203-0.744
	c-0.758-3.222-3.999-5.226-7.214-4.467c-3.221,0.758-5.225,3.994-4.467,7.215c0.126,0.537-0.207,1.075-0.745,1.202
	c-0.076,0.018-0.153,0.026-0.229,0.026c-0.453,0-0.864-0.311-0.973-0.771c-0.294-1.251-0.268-2.502,0.012-3.674
	c-2.058-0.301-4.137,0.476-5.493,2.122c-1.258,1.529-1.625,3.498-1.175,5.285c0.001,0.012,0.007,0.022,0.008,0.034
	c0.306,1.186,0.97,2.29,1.985,3.127c0.426,0.352,0.487,0.981,0.137,1.408c-0.198,0.24-0.484,0.364-0.773,0.364
	c-0.224,0-0.448-0.074-0.635-0.228c-1.217-1.002-2.088-2.311-2.546-3.781c-4.043-1.054-8.294,0.647-10.49,4.262
	c-1.317,2.168-1.712,4.72-1.11,7.185c0.602,2.466,2.127,4.549,4.296,5.867c0.472,0.287,0.622,0.901,0.335,1.374
	c-0.188,0.31-0.518,0.48-0.855,0.48c-0.133,0-0.265-0.036-0.392-0.091c1.58,0.936,3.399,1.509,5.344,1.593l8.209,0.003
	c5.307-0.085,9.853-3.36,11.791-7.992c1.963,4.693,6.603,8,12,8c9.374,0,17-7.626,17-17v-10L59.979,27.002z"/>
<g>
	<path style="fill:#ABCADD;" d="M52.936,20.068c-0.231-6.139-5.284-11.066-11.478-11.066c-6.142,0-11.16,4.844-11.47,10.91
		c-0.558,0.012-1.119,0.078-1.676,0.209c-2.336,0.55-4.185,2.082-5.229,4.052c-2.882-0.585-5.848,0.433-7.75,2.742
		c-1.251,1.52-1.879,3.408-1.81,5.359c-4.63-0.834-9.34,1.224-11.844,5.344c-1.596,2.625-2.073,5.714-1.345,8.698
		s2.575,5.506,5.2,7.102c0.162,0.099,0.342,0.146,0.519,0.146c0.338,0,0.667-0.171,0.855-0.48c0.287-0.473,0.137-1.087-0.335-1.374
		c-2.169-1.318-3.694-3.401-4.296-5.867c-0.602-2.465-0.207-5.017,1.11-7.185c2.196-3.614,6.447-5.315,10.49-4.262
		c0.458,1.471,1.33,2.779,2.546,3.781c0.187,0.153,0.411,0.228,0.635,0.228c0.289,0,0.575-0.124,0.773-0.364
		c0.351-0.427,0.289-1.057-0.137-1.408c-1.016-0.836-1.679-1.941-1.985-3.127c-0.001-0.012-0.007-0.022-0.008-0.034
		c-0.45-1.787-0.083-3.756,1.175-5.285c1.356-1.646,3.435-2.423,5.493-2.122c-0.28,1.173-0.307,2.423-0.012,3.674
		c0.108,0.461,0.52,0.771,0.973,0.771c0.076,0,0.153-0.009,0.229-0.026c0.538-0.127,0.871-0.665,0.745-1.202
		c-0.758-3.221,1.246-6.457,4.467-7.215c3.215-0.759,6.456,1.245,7.214,4.467c0.127,0.537,0.665,0.865,1.203,0.744
		c0.537-0.127,0.87-0.665,0.744-1.203c-0.49-2.08-1.76-3.845-3.576-4.97c-0.746-0.462-1.549-0.785-2.378-0.981
		c0.2-5.063,4.37-9.123,9.481-9.123c5.094,0,9.253,4.033,9.478,9.073c-3.929,0.504-6.978,3.863-6.978,7.927c0,0.553,0.447,1,1,1
		s1-0.447,1-1c0-3.309,2.691-6,6-6s6.046,2.691,6.046,6c0,0.028,0,1.327,0,3c0,0.552,0.448,1,1,1s1-0.448,1-1v-3
		C60.003,23.922,56.886,20.552,52.936,20.068z"/>
</g>
<g>
	<path style="fill:#ABCADD;" d="M43.003,55.002c-4.973,0-9.491-2.608-12-6.789c-2.509,4.181-7.027,6.789-12,6.789
		c-0.552,0-1-0.447-1-1s0.448-1,1-1c4.853,0,9.201-2.899,11.078-7.386l0.922-2.206l0.922,2.206
		c1.876,4.486,6.225,7.386,11.078,7.386c0.552,0,1,0.447,1,1S43.556,55.002,43.003,55.002z"/>
</g>
<path style="fill:#ABCADD;" d="M54.901,40.876c-0.458-3.979-3.843-7.082-7.943-7.082c-4.411,0-8,3.589-8,8c0,0.552,0.448,1,1,1
	s1-0.448,1-1c0-3.309,2.691-6,6-6c3.003,0,5.49,2.219,5.925,5.102c-2.797,0.509-4.925,2.957-4.925,5.898c0,0.552,0.448,1,1,1
	s1-0.448,1-1c0-2.206,1.794-4,4-4s4,1.794,4,4c0,0.552,0.448,1,1,1s1-0.448,1-1C59.958,43.808,57.762,41.331,54.901,40.876z"/>
<g>
</g>
<g>
</g>
<g>
</g>
<g>
</g>
<g>
</g>
<g>
</g>
<g>
</g>
<g>
</g>
<g>
</g>
<g>
</g>
<g>
</g>
<g>
</g>
<g>
</g>
<g>
</g>
<g>
</g>
</svg>
