<?xml version="1.0" encoding="iso-8859-1"?>
<!-- Generator: Adobe Illustrator 19.0.0, SVG Export Plug-In . SVG Version: 6.00 Build 0)  -->
<svg version="1.1" id="Capa_1" xmlns="http://www.w3.org/2000/svg" xmlns:xlink="http://www.w3.org/1999/xlink" x="0px" y="0px"
	 viewBox="0 0 60.003 60.003" style="enable-background:new 0 0 60.003 60.003;" xml:space="preserve">
<path style="fill:#FBD490;stroke:#F0C419;stroke-width:2;stroke-miterlimit:10;" d="M18.069,12.071
	c2.503,0.387,4.478,2.362,4.866,4.866c0.013,0.087,0.125,0.087,0.138,0c0.387-2.503,2.362-4.478,4.866-4.866
	c0.087-0.013,0.087-0.125,0-0.138c-2.503-0.387-4.478-2.362-4.866-4.866c-0.013-0.087-0.125-0.087-0.138,0
	c-0.387,2.503-2.362,4.478-4.866,4.866C17.982,11.946,17.982,12.057,18.069,12.071z"/>
<path style="fill:#FBD490;stroke:#F0C419;stroke-width:2;stroke-miterlimit:10;" d="M3.056,24.057
	c2.003,0.31,3.583,1.89,3.892,3.892c0.011,0.07,0.1,0.07,0.11,0c0.31-2.003,1.89-3.583,3.892-3.892c0.07-0.011,0.07-0.1,0-0.11
	c-2.003-0.31-3.583-1.89-3.892-3.892c-0.011-0.07-0.1-0.07-0.11,0c-0.31,2.003-1.89,3.583-3.892,3.892
	C2.986,23.957,2.986,24.046,3.056,24.057z"/>
<path style="fill:#FBD490;stroke:#F0C419;stroke-width:2;stroke-miterlimit:10;" d="M2.082,8.085
	c3.004,0.465,5.374,2.835,5.839,5.839c0.016,0.105,0.149,0.105,0.166,0c0.465-3.004,2.835-5.374,5.839-5.839
	c0.105-0.016,0.105-0.149,0-0.166C10.921,7.454,8.551,5.084,8.086,2.08c-0.016-0.105-0.149-0.105-0.166,0
	C7.456,5.084,5.086,7.454,2.082,7.919C1.977,7.935,1.977,8.068,2.082,8.085z"/>
<path style="fill:#D0E8F9;" d="M59.979,23.002h-0.081c0.035,0.304,0.059,0.611,0.059,0.925c0,0.553-0.447,1-1,1s-1-0.447-1-1
	c0-3.309-2.691-6-6-6s-6,2.691-6,6c0,0.553-0.447,1-1,1s-1-0.447-1-1c0-4.064,3.049-7.423,6.978-7.927
	c-0.226-5.039-4.384-9.073-9.478-9.073c-5.111,0-9.281,4.06-9.481,9.123c0.829,0.196,1.632,0.52,2.378,0.981
	c1.816,1.125,3.086,2.89,3.576,4.97c0.126,0.538-0.207,1.076-0.744,1.203c-0.538,0.121-1.076-0.207-1.203-0.744
	c-0.758-3.222-3.999-5.226-7.214-4.467c-3.221,0.758-5.225,3.994-4.467,7.215c0.126,0.537-0.207,1.075-0.745,1.202
	c-0.076,0.018-0.153,0.026-0.229,0.026c-0.453,0-0.864-0.311-0.973-0.771c-0.294-1.251-0.268-2.502,0.012-3.674
	c-2.058-0.301-4.137,0.476-5.493,2.122c-1.258,1.529-1.625,3.498-1.175,5.285c0.001,0.012,0.007,0.022,0.008,0.034
	c0.306,1.186,0.97,2.29,1.985,3.127c0.426,0.352,0.487,0.981,0.137,1.408c-0.198,0.24-0.484,0.364-0.773,0.364
	c-0.224,0-0.448-0.074-0.635-0.228c-1.217-1.002-2.088-2.311-2.546-3.781c-4.043-1.054-8.294,0.647-10.49,4.262
	c-1.317,2.168-1.712,4.72-1.11,7.185c0.602,2.466,2.127,4.549,4.296,5.867c0.472,0.287,0.622,0.901,0.335,1.374
	c-0.188,0.31-0.518,0.48-0.855,0.48c-0.133,0-0.265-0.036-0.392-0.091c1.58,0.936,3.399,1.509,5.344,1.593l8.209,0.003
	c5.307-0.085,9.853-3.36,11.791-7.992c1.963,4.693,6.603,8,12,8c9.374,0,17-7.626,17-17v-10L59.979,23.002z"/>
<g>
	<path style="fill:#ABCADD;" d="M52.936,16.068C52.705,9.929,47.652,5.002,41.458,5.002c-6.142,0-11.16,4.844-11.47,10.91
		c-0.558,0.012-1.119,0.078-1.676,0.209c-2.336,0.55-4.185,2.082-5.229,4.052c-2.882-0.585-5.848,0.433-7.75,2.742
		c-1.251,1.52-1.879,3.408-1.81,5.359c-4.63-0.834-9.34,1.224-11.844,5.344c-1.596,2.625-2.073,5.714-1.345,8.698
		s2.575,5.506,5.2,7.102c0.162,0.099,0.342,0.146,0.519,0.146c0.338,0,0.667-0.171,0.855-0.48c0.287-0.473,0.137-1.087-0.335-1.374
		c-2.169-1.318-3.694-3.401-4.296-5.867c-0.602-2.465-0.207-5.017,1.11-7.185c2.196-3.614,6.447-5.315,10.49-4.262
		c0.458,1.471,1.33,2.779,2.546,3.781c0.187,0.153,0.411,0.228,0.635,0.228c0.289,0,0.575-0.124,0.773-0.364
		c0.351-0.427,0.289-1.057-0.137-1.408c-1.016-0.836-1.679-1.941-1.985-3.127c-0.001-0.012-0.007-0.022-0.008-0.034
		c-0.45-1.787-0.083-3.756,1.175-5.285c1.356-1.646,3.435-2.423,5.493-2.122c-0.28,1.173-0.307,2.423-0.012,3.674
		c0.108,0.461,0.52,0.771,0.973,0.771c0.076,0,0.153-0.009,0.229-0.026c0.538-0.127,0.871-0.665,0.745-1.202
		c-0.758-3.221,1.246-6.457,4.467-7.215c3.215-0.759,6.456,1.245,7.214,4.467c0.127,0.537,0.665,0.865,1.203,0.744
		c0.537-0.127,0.87-0.665,0.744-1.203c-0.49-2.08-1.76-3.845-3.576-4.97c-0.746-0.462-1.549-0.785-2.378-0.981
		c0.2-5.063,4.37-9.123,9.481-9.123c5.094,0,9.253,4.033,9.478,9.073c-3.929,0.504-6.978,3.863-6.978,7.927c0,0.553,0.447,1,1,1
		s1-0.447,1-1c0-3.309,2.691-6,6-6s6.046,2.691,6.046,6c0,0.028,0,1.327,0,3c0,0.552,0.448,1,1,1s1-0.448,1-1v-3
		C60.003,19.922,56.886,16.552,52.936,16.068z"/>
	<path style="fill:#ABCADD;" d="M48.003,37.002c0.552,0,1-0.448,1-1c0-1.442,0-0.5,0-0.5c0-2.481,2.019-4.5,4.5-4.5
		s4.5,2.019,4.5,4.5c0,0.553,0.448,1,1,1s1-0.447,1-1c0-3.584-2.916-6.5-6.5-6.5c-3.415,0-6.243,2.649-6.5,6v1
		C47.003,36.554,47.451,37.002,48.003,37.002z"/>
</g>
<g>
	<path style="fill:#ABC5D3;" d="M25.926,50.62c-0.101-0.245-0.296-0.44-0.541-0.541c-0.122-0.05-0.252-0.077-0.382-0.077h-3.586
		l8.293-8.293c0.391-0.391,0.391-1.023,0-1.414s-1.023-0.391-1.414,0l-9.999,9.999c-0.093,0.092-0.166,0.203-0.217,0.326
		c-0.101,0.244-0.101,0.52,0,0.764c0.101,0.245,0.296,0.44,0.541,0.541c0.122,0.051,0.252,0.077,0.382,0.077h3.586l-5.293,5.293
		c-0.391,0.391-0.391,1.023,0,1.414c0.195,0.195,0.451,0.293,0.707,0.293s0.512-0.098,0.707-0.293l6.999-6.999
		c0.093-0.092,0.166-0.203,0.217-0.326C26.027,51.139,26.027,50.864,25.926,50.62z"/>
	<path style="fill:#ABC5D3;" d="M41.71,36.295c-0.391-0.391-1.023-0.391-1.414,0l-9.999,9.999c-0.093,0.092-0.166,0.203-0.217,0.326
		c-0.101,0.244-0.101,0.52,0,0.764c0.101,0.245,0.296,0.44,0.541,0.541c0.122,0.051,0.252,0.077,0.382,0.077h3.586l-5.293,5.293
		c-0.391,0.391-0.391,1.023,0,1.414c0.195,0.195,0.451,0.293,0.707,0.293s0.512-0.098,0.707-0.293l6.999-6.999
		c0.093-0.092,0.166-0.203,0.217-0.326c0.101-0.244,0.101-0.519,0-0.764c-0.101-0.245-0.296-0.44-0.541-0.541
		c-0.122-0.05-0.252-0.077-0.382-0.077h-3.586l8.293-8.293C42.101,37.318,42.101,36.685,41.71,36.295z"/>
</g>
<g>
</g>
<g>
</g>
<g>
</g>
<g>
</g>
<g>
</g>
<g>
</g>
<g>
</g>
<g>
</g>
<g>
</g>
<g>
</g>
<g>
</g>
<g>
</g>
<g>
</g>
<g>
</g>
<g>
</g>
</svg>
