<?xml version="1.0" encoding="iso-8859-1"?>
<!-- Generator: Adobe Illustrator 19.0.0, SVG Export Plug-In . SVG Version: 6.00 Build 0)  -->
<svg version="1.1" id="Capa_1" xmlns="http://www.w3.org/2000/svg" xmlns:xlink="http://www.w3.org/1999/xlink" x="0px" y="0px"
	 viewBox="0 0 60 60" style="enable-background:new 0 0 60 60;" xml:space="preserve">
<line style="fill:none;stroke:#7F6E5D;stroke-width:2;stroke-linecap:round;stroke-miterlimit:10;" x1="25" y1="8.5" x2="25" y2="5.5"/>
<path style="fill:#ABCADD;" d="M42,12.5c-0.256,0-0.512-0.098-0.707-0.293c-0.391-0.391-0.391-1.023,0-1.414l3-3
	c0.391-0.391,1.023-0.391,1.414,0s0.391,1.023,0,1.414l-3,3C42.512,12.402,42.256,12.5,42,12.5z"/>
<path style="fill:#ABCADD;" d="M49,21.5c-0.256,0-0.512-0.098-0.707-0.293c-0.391-0.391-0.391-1.023,0-1.414l3-3
	c0.391-0.391,1.023-0.391,1.414,0s0.391,1.023,0,1.414l-3,3C49.512,21.402,49.256,21.5,49,21.5z"/>
<path style="fill:#ABCADD;" d="M56,6.5c-0.256,0-0.512-0.098-0.707-0.293c-0.391-0.391-0.391-1.023,0-1.414l3-3
	c0.391-0.391,1.023-0.391,1.414,0s0.391,1.023,0,1.414l-3,3C56.512,6.402,56.256,6.5,56,6.5z"/>
<path style="fill:#ABCADD;" d="M50,12.5c-0.256,0-0.512-0.098-0.707-0.293c-0.391-0.391-0.391-1.023,0-1.414l3-3
	c0.391-0.391,1.023-0.391,1.414,0s0.391,1.023,0,1.414l-3,3C50.512,12.402,50.256,12.5,50,12.5z"/>
<path style="fill:#ABCADD;" d="M48,6.5c-0.256,0-0.512-0.098-0.707-0.293c-0.391-0.391-0.391-1.023,0-1.414l3-3
	c0.391-0.391,1.023-0.391,1.414,0s0.391,1.023,0,1.414l-3,3C48.512,6.402,48.256,6.5,48,6.5z"/>
<path style="fill:#ABCADD;" d="M56,14.5c-0.256,0-0.512-0.098-0.707-0.293c-0.391-0.391-0.391-1.023,0-1.414l3-3
	c0.391-0.391,1.023-0.391,1.414,0s0.391,1.023,0,1.414l-3,3C56.512,14.402,56.256,14.5,56,14.5z"/>
<line style="fill:none;stroke:#7F6E5D;stroke-width:2;stroke-linecap:round;stroke-miterlimit:10;" x1="25" y1="32.5" x2="25" y2="46.5"/>
<path style="fill:#CB8252;" d="M23,46.5v6c0,1.103-0.897,2-2,2c-0.761,0-1.424-0.427-1.762-1.055
	c-0.328-0.608-1.005-0.945-1.696-0.945c-1.559,0-2.505,1.698-1.713,3.041C16.873,57.31,18.8,58.5,21,58.5c3.309,0,6-2.691,6-6v-6H23
	z"/>
<line style="fill:none;stroke:#7F6E5D;stroke-width:2;stroke-linecap:round;stroke-miterlimit:10;" x1="23" y1="42.5" x2="25" y2="42.5"/>
<path style="fill:#556080;" d="M24,9.5c0,0-10.031,4.219-10,21c0,0,4.781-4.406,10,0V9.5z"/>
<path style="fill:#556080;" d="M28,9.063c0,0,19.778,3.545,20.876,22.438c0,0-5.352-5.078-10.979,0
	C37.897,31.5,34.724,13.728,28,9.063z"/>
<path style="fill:#8697CB;" d="M26,9.5c0,0,10.031,4.219,10,21c0,0-4.781-4.406-10,0V9.5z"/>
<path style="fill:#8697CB;" d="M19.896,10.063C19.896,10.063,3,13.292,2,30.5c0,0,4.875-4.625,10,0
	C12,30.5,13.771,14.313,19.896,10.063z"/>
<path style="fill:none;stroke:#546A79;stroke-width:2;stroke-linecap:round;stroke-miterlimit:10;" d="M13,32.5
	c-3.316-4-8.684-4-12,0"/>
<path style="fill:none;stroke:#546A79;stroke-width:2;stroke-linecap:round;stroke-miterlimit:10;" d="M25,32.5
	c-3.316-4-8.684-4-12,0"/>
<path style="fill:none;stroke:#546A79;stroke-width:2;stroke-linecap:round;stroke-miterlimit:10;" d="M37,32.5
	c-3.316-4-8.684-4-12,0"/>
<path style="fill:none;stroke:#546A79;stroke-width:2;stroke-linecap:round;stroke-miterlimit:10;" d="M49,32.5
	c-3.316-4-8.684-4-12,0"/>
<path style="fill:none;stroke:#546A79;stroke-width:2;stroke-linecap:round;stroke-miterlimit:10;" d="M1,32.5
	c0-13.255,10.745-24,24-24s24,10.745,24,24"/>
<path style="fill:none;stroke:#546A79;stroke-width:2;stroke-linecap:round;stroke-miterlimit:10;" d="M13,32.5
	c0-13.266,5.814-24,13-24"/>
<path style="fill:none;stroke:#546A79;stroke-width:2;stroke-linecap:round;stroke-miterlimit:10;" d="M37,32.5
	c0-13.266-5.814-24-13-24"/>
<line style="fill:none;stroke:#546A79;stroke-width:2;stroke-linecap:round;stroke-miterlimit:10;" x1="25" y1="32.5" x2="25" y2="8.5"/>
<line style="fill:none;stroke:#546A79;stroke-width:2;stroke-linecap:round;stroke-miterlimit:10;" x1="13" y1="32.5" x2="13" y2="34.5"/>
<line style="fill:none;stroke:#546A79;stroke-width:2;stroke-linecap:round;stroke-miterlimit:10;" x1="1" y1="32.5" x2="1" y2="34.5"/>
<line style="fill:none;stroke:#546A79;stroke-width:2;stroke-linecap:round;stroke-miterlimit:10;" x1="37" y1="32.5" x2="37" y2="34.5"/>
<line style="fill:none;stroke:#546A79;stroke-width:2;stroke-linecap:round;stroke-miterlimit:10;" x1="25" y1="32.5" x2="25" y2="34.5"/>
<line style="fill:none;stroke:#546A79;stroke-width:2;stroke-linecap:round;stroke-miterlimit:10;" x1="49" y1="32.5" x2="49" y2="34.5"/>
<g>
</g>
<g>
</g>
<g>
</g>
<g>
</g>
<g>
</g>
<g>
</g>
<g>
</g>
<g>
</g>
<g>
</g>
<g>
</g>
<g>
</g>
<g>
</g>
<g>
</g>
<g>
</g>
<g>
</g>
</svg>
