<?xml version="1.0" encoding="iso-8859-1"?>
<!-- Generator: Adobe Illustrator 19.0.0, SVG Export Plug-In . SVG Version: 6.00 Build 0)  -->
<svg version="1.1" id="Capa_1" xmlns="http://www.w3.org/2000/svg" xmlns:xlink="http://www.w3.org/1999/xlink" x="0px" y="0px"
	 viewBox="0 0 58 58" style="enable-background:new 0 0 58 58;" xml:space="preserve">
<circle style="fill:#95A5A5;" cx="18" cy="55" r="1"/>
<circle style="fill:#95A5A5;" cx="26" cy="55" r="1"/>
<circle style="fill:#95A5A5;" cx="34" cy="55" r="1"/>
<path style="fill:#BDC3C7;" d="M50,36C34.536,36,22,23.464,22,8c0-1.87,0.187-3.696,0.537-5.463C9.689,5.078,0,16.406,0,30
	c0,15.464,12.536,28,28,28c13.594,0,24.922-9.689,27.463-22.537C53.696,35.813,51.87,36,50,36z"/>
<path style="fill:#FBD490;stroke:#F0C419;stroke-width:2;stroke-miterlimit:10;" d="M32.052,22.055
	c2.003,0.31,3.583,1.89,3.892,3.892c0.011,0.07,0.1,0.07,0.11,0c0.31-2.003,1.89-3.583,3.892-3.892c0.07-0.011,0.07-0.1,0-0.11
	c-2.003-0.31-3.583-1.89-3.892-3.892c-0.011-0.07-0.1-0.07-0.11,0c-0.31,2.003-1.89,3.583-3.892,3.892
	C31.983,21.956,31.983,22.044,32.052,22.055z"/>
<path style="fill:#FBD490;stroke:#F0C419;stroke-width:2;stroke-miterlimit:10;" d="M45.078,7.083
	c3.004,0.465,5.374,2.835,5.839,5.839c0.016,0.105,0.149,0.105,0.166,0c0.465-3.004,2.835-5.374,5.839-5.839
	c0.105-0.016,0.105-0.149,0-0.166c-3.004-0.465-5.374-2.835-5.839-5.839c-0.016-0.105-0.149-0.105-0.166,0
	c-0.465,3.004-2.835,5.374-5.839,5.839C44.974,6.933,44.974,7.067,45.078,7.083z"/>
<circle style="fill:#95A5A5;" cx="14" cy="11" r="1"/>
<circle style="fill:#95A5A5;" cx="10" cy="15" r="1"/>
<circle style="fill:#95A5A5;" cx="6" cy="19" r="1"/>
<circle style="fill:#95A5A5;" cx="14" cy="19" r="1"/>
<circle style="fill:#95A5A5;" cx="2" cy="23" r="1"/>
<circle style="fill:#95A5A5;" cx="10" cy="23" r="1"/>
<circle style="fill:#95A5A5;" cx="6" cy="27" r="1"/>
<circle style="fill:#95A5A5;" cx="14" cy="27" r="1"/>
<circle style="fill:#95A5A5;" cx="2" cy="31" r="1"/>
<circle style="fill:#95A5A5;" cx="10" cy="31" r="1"/>
<circle style="fill:#95A5A5;" cx="6" cy="35" r="1"/>
<circle style="fill:#95A5A5;" cx="14" cy="35" r="1"/>
<circle style="fill:#95A5A5;" cx="10" cy="39" r="1"/>
<circle style="fill:#95A5A5;" cx="6" cy="43" r="1"/>
<circle style="fill:#95A5A5;" cx="14" cy="43" r="1"/>
<circle style="fill:#95A5A5;" cx="10" cy="47" r="1"/>
<circle style="fill:#95A5A5;" cx="14" cy="51" r="1"/>
<circle style="fill:#95A5A5;" cx="18" cy="15" r="1"/>
<circle style="fill:#95A5A5;" cx="18" cy="7" r="1"/>
<circle style="fill:#95A5A5;" cx="22" cy="19" r="1"/>
<circle style="fill:#95A5A5;" cx="18" cy="23" r="1"/>
<circle style="fill:#95A5A5;" cx="22" cy="27" r="1"/>
<circle style="fill:#95A5A5;" cx="18" cy="31" r="1"/>
<circle style="fill:#95A5A5;" cx="26" cy="31" r="1"/>
<circle style="fill:#95A5A5;" cx="22" cy="35" r="1"/>
<circle style="fill:#95A5A5;" cx="30" cy="35" r="1"/>
<circle style="fill:#95A5A5;" cx="18" cy="39" r="1"/>
<circle style="fill:#95A5A5;" cx="26" cy="39" r="1"/>
<circle style="fill:#95A5A5;" cx="22" cy="43" r="1"/>
<circle style="fill:#95A5A5;" cx="30" cy="43" r="1"/>
<circle style="fill:#95A5A5;" cx="18" cy="47" r="1"/>
<circle style="fill:#95A5A5;" cx="26" cy="47" r="1"/>
<circle style="fill:#95A5A5;" cx="22" cy="51" r="1"/>
<circle style="fill:#95A5A5;" cx="30" cy="51" r="1"/>
<circle style="fill:#95A5A5;" cx="38" cy="35" r="1"/>
<circle style="fill:#95A5A5;" cx="34" cy="39" r="1"/>
<circle style="fill:#95A5A5;" cx="38" cy="43" r="1"/>
<circle style="fill:#95A5A5;" cx="34" cy="47" r="1"/>
<circle style="fill:#95A5A5;" cx="38" cy="51" r="1"/>
<circle style="fill:#95A5A5;" cx="42" cy="39" r="1"/>
<circle style="fill:#95A5A5;" cx="46" cy="43" r="1"/>
<circle style="fill:#95A5A5;" cx="42" cy="47" r="1"/>
<circle style="fill:#95A5A5;" cx="50" cy="39" r="1"/>
<g>
</g>
<g>
</g>
<g>
</g>
<g>
</g>
<g>
</g>
<g>
</g>
<g>
</g>
<g>
</g>
<g>
</g>
<g>
</g>
<g>
</g>
<g>
</g>
<g>
</g>
<g>
</g>
<g>
</g>
</svg>
