<svg xmlns="http://www.w3.org/2000/svg" width="81" height="32" fill="none" viewBox="0 0 81 32">
    <path fill="#000" d="M7.668 9.403C7.4 10.43 7.11 11.45 6.8 12.463c-.296 1.014-.612 2.034-.948 3.06h-2.34c-.243-.567-.505-1.242-.788-2.026-.282-.784-.578-1.635-.888-2.553-.296-.933-.605-1.912-.928-2.939C.598 6.965.296 5.918 0 4.864h3.168c.108.486.222 1.02.343 1.6.135.568.27 1.156.404 1.764.148.608.296 1.223.444 1.844.161.608.323 1.196.484 1.763.175-.594.343-1.202.505-1.824.174-.621.336-1.23.484-1.824.161-.608.31-1.188.444-1.742.148-.568.276-1.095.383-1.581h2.18c.107.486.228 1.013.363 1.58l.424 1.743c.148.595.302 1.203.464 1.824.161.622.33 1.23.504 1.824.162-.567.323-1.155.485-1.763.16-.621.309-1.236.443-1.844.148-.608.283-1.196.404-1.763.134-.581.256-1.115.363-1.601h3.128c-.296 1.054-.605 2.1-.928 3.141-.31 1.027-.619 2.006-.929 2.939-.295.918-.591 1.77-.887 2.553-.283.784-.545 1.46-.787 2.027H9.545c-.336-1.027-.666-2.047-.989-3.06-.323-1.014-.619-2.034-.888-3.06zM20.042 15.524h-3.007V4.864h3.007v10.66zm.282-13.74c0 .553-.181.992-.545 1.317-.35.31-.766.466-1.25.466-.485 0-.909-.156-1.272-.466-.35-.325-.525-.764-.525-1.318s.175-.986.525-1.297C17.62.162 18.044 0 18.528 0c.485 0 .902.162 1.251.486.364.311.545.743.545 1.297zM25.915 13.355c.552 0 .942-.054 1.17-.162.23-.108.344-.317.344-.628 0-.243-.148-.453-.444-.628-.296-.19-.747-.399-1.352-.629-.471-.175-.902-.358-1.292-.547-.377-.189-.7-.412-.968-.668-.27-.27-.478-.588-.626-.953-.148-.365-.222-.804-.222-1.317 0-1 .37-1.79 1.11-2.371.74-.581 1.755-.872 3.047-.872.646 0 1.265.06 1.857.183.591.108 1.062.23 1.412.364l-.525 2.351c-.35-.121-.733-.23-1.15-.324-.403-.095-.86-.142-1.372-.142-.942 0-1.413.263-1.413.79 0 .122.02.23.061.325.04.094.121.189.242.283.121.081.283.176.484.284.216.095.485.203.808.324.659.244 1.204.487 1.634.73.43.23.767.486 1.01.77.255.27.43.574.524.912.107.338.161.73.161 1.175 0 1.054-.397 1.851-1.19 2.392-.78.54-1.89.81-3.33.81-.942 0-1.729-.08-2.361-.243-.619-.162-1.05-.297-1.291-.405l.504-2.452c.511.202 1.036.365 1.574.486.538.108 1.07.162 1.594.162zM32.158 10.275c0-.946.141-1.77.423-2.473.296-.716.68-1.31 1.15-1.783.472-.473 1.01-.83 1.615-1.074.619-.243 1.251-.365 1.897-.365 1.507 0 2.697.466 3.572 1.398.874.92 1.311 2.277 1.311 4.074 0 .176-.006.372-.02.588-.013.202-.027.385-.04.547h-6.82c.066.621.356 1.115.867 1.48.511.364 1.197.546 2.058.546.552 0 1.09-.047 1.614-.141.539-.108.976-.237 1.312-.385l.404 2.452c-.162.08-.377.162-.646.243-.269.081-.572.149-.908.203-.323.067-.673.121-1.05.162-.376.04-.753.06-1.13.06-.955 0-1.789-.141-2.502-.425-.7-.284-1.284-.669-1.755-1.155-.458-.5-.8-1.088-1.03-1.763-.215-.676-.322-1.405-.322-2.19zM39.22 9.12c-.014-.257-.061-.507-.142-.75-.067-.243-.181-.46-.343-.649-.148-.189-.343-.344-.585-.466-.229-.121-.518-.182-.868-.182-.336 0-.625.06-.867.182-.243.108-.444.257-.606.446-.161.19-.289.412-.383.669-.08.243-.142.493-.182.75h3.976zM7.043 22.536c0-.973-.128-1.662-.384-2.067-.242-.406-.666-.608-1.271-.608-.188 0-.384.013-.585.04-.202.014-.397.034-.586.061v8.228H1.211V17.895c.255-.068.551-.135.888-.203.35-.08.713-.148 1.09-.202.39-.068.786-.115 1.19-.142.404-.04.8-.061 1.19-.061.767 0 1.386.101 1.857.304.484.189.881.419 1.19.689.431-.31.922-.554 1.474-.73.565-.175 1.083-.263 1.553-.263.848 0 1.54.122 2.079.365.552.23.989.56 1.312.993.322.432.544.945.666 1.54.12.594.181 1.256.181 1.986v6.019h-3.007v-5.654c0-.973-.127-1.662-.383-2.067-.242-.406-.666-.608-1.271-.608-.162 0-.39.04-.686.121-.283.081-.518.183-.707.304.095.311.155.642.182.993.027.338.04.703.04 1.095v5.816H7.043v-5.654zM22.668 26.082c.296 0 .578-.006.847-.02.27-.013.484-.034.646-.06v-2.29c-.121-.028-.303-.055-.545-.082-.242-.027-.464-.04-.666-.04-.282 0-.552.02-.807.06-.242.027-.457.088-.646.183-.188.094-.336.223-.444.385-.107.162-.161.365-.161.608 0 .473.155.804.464.993.323.175.76.263 1.312.263zm-.243-8.836c.888 0 1.628.102 2.22.304.592.203 1.063.494 1.413.872.363.378.619.837.767 1.378.148.54.222 1.142.222 1.803v6.283c-.431.095-1.03.203-1.797.324-.766.135-1.695.203-2.784.203-.686 0-1.312-.06-1.877-.183-.551-.121-1.029-.317-1.433-.587-.403-.284-.713-.649-.928-1.095-.215-.445-.323-.993-.323-1.641 0-.622.121-1.148.363-1.58.256-.433.592-.778 1.01-1.034.417-.257.894-.44 1.432-.548.538-.121 1.097-.182 1.675-.182.39 0 .733.02 1.03.06.309.028.558.068.746.122v-.283c0-.514-.155-.926-.464-1.236-.31-.311-.848-.467-1.615-.467-.51 0-1.015.04-1.513.122-.498.067-.928.169-1.292.304l-.383-2.432c.175-.054.39-.108.646-.162.269-.068.558-.122.867-.162.31-.054.633-.095.97-.122.349-.04.699-.06 1.048-.06zM36.566 22.941c0-.932-.209-1.675-.626-2.23-.417-.567-1.036-.85-1.856-.85-.27 0-.518.013-.747.04-.229.014-.417.034-.565.061v5.452c.188.121.43.223.727.303.309.082.618.122.928.122 1.426 0 2.139-.966 2.139-2.898zm3.067-.081c0 .824-.1 1.574-.303 2.25-.201.675-.497 1.256-.887 1.742-.39.487-.875.865-1.453 1.135-.579.27-1.245.406-1.998.406-.417 0-.807-.04-1.17-.122-.364-.081-.714-.196-1.05-.345v4.013h-3.007V17.895c.27-.081.579-.155.929-.223.35-.081.713-.149 1.09-.203.39-.054.78-.094 1.17-.121.403-.04.787-.061 1.15-.061.874 0 1.655.135 2.34.405.687.257 1.265.628 1.736 1.115.471.473.828 1.054 1.07 1.743.255.689.383 1.459.383 2.31zM48.744 22.941c0-.932-.208-1.675-.625-2.23-.417-.567-1.036-.85-1.857-.85-.269 0-.518.013-.746.04-.229.014-.417.034-.565.061v5.452c.188.121.43.223.726.303.31.082.619.122.928.122 1.426 0 2.14-.966 2.14-2.898zm3.068-.081c0 .824-.101 1.574-.303 2.25-.202.675-.498 1.256-.888 1.742-.39.487-.874.865-1.453 1.135-.578.27-1.244.406-1.998.406-.417 0-.807-.04-1.17-.122-.363-.081-.713-.196-1.05-.345v4.013h-3.006V17.895c.269-.081.578-.155.928-.223.35-.081.713-.149 1.09-.203.39-.054.78-.094 1.17-.121.404-.04.787-.061 1.15-.061.875 0 1.655.135 2.341.405.686.257 1.265.628 1.736 1.115.47.473.827 1.054 1.07 1.743.255.689.383 1.459.383 2.31zM57.13 28.19h-3.008V17.53h3.007v10.66zm.282-13.74c0 .554-.182.993-.545 1.317-.35.31-.767.466-1.251.466-.484 0-.908-.155-1.272-.466-.35-.324-.524-.763-.524-1.317 0-.554.175-.987.524-1.297.364-.325.788-.487 1.272-.487s.901.162 1.25.487c.364.31.546.743.546 1.297zM59.956 17.895c.51-.149 1.17-.284 1.977-.405.807-.136 1.655-.203 2.543-.203.901 0 1.648.122 2.24.365.605.23 1.083.56 1.432.993.35.432.6.945.747 1.54.148.594.222 1.256.222 1.986v6.019H66.11v-5.654c0-.973-.127-1.662-.383-2.067-.256-.406-.733-.608-1.433-.608-.215 0-.444.013-.686.04-.242.014-.457.034-.646.061v8.228h-3.006V17.895zM74.401 22.515c0 1.69.68 2.534 2.038 2.534.31 0 .6-.04.868-.122.27-.08.498-.175.686-.284V19.82c-.148-.027-.323-.047-.524-.06-.202-.028-.438-.041-.707-.041-.793 0-1.385.263-1.775.79-.39.527-.586 1.196-.586 2.006zM81 26.852c0 1.743-.444 3.034-1.332 3.871-.874.851-2.233 1.277-4.076 1.277-.646 0-1.291-.06-1.937-.182-.646-.109-1.245-.257-1.796-.446l.524-2.534c.471.19.962.338 1.474.446.524.108 1.116.163 1.775.163.861 0 1.467-.19 1.816-.568.364-.378.545-.865.545-1.46v-.384c-.323.148-.659.263-1.009.344-.336.068-.706.102-1.11.102-1.466 0-2.59-.433-3.37-1.297-.78-.879-1.17-2.101-1.17-3.669 0-.783.121-1.492.363-2.127.242-.649.592-1.203 1.05-1.662.47-.46 1.042-.81 1.715-1.054.672-.257 1.433-.385 2.28-.385.363 0 .733.02 1.11.06.39.028.774.068 1.15.122.377.054.733.122 1.07.203.35.067.659.142.928.223v8.957z"/>
</svg>
