<?xml version="1.0" encoding="utf-8"?>
<svg viewBox="11.791 4.244 45.584 42.529" width="47.08" height="32.567" xmlns="http://www.w3.org/2000/svg">
  <mask id="i08j30ef6a" fill="#fff">
    <path d="M 32.334 17.911 C 32.334 20.705 31.301 23.382 29.458 25.357 C 27.617 27.332 25.121 28.441 22.517 28.441 C 19.913 28.441 17.417 27.332 15.576 25.357 C 13.734 23.382 12.7 20.705 12.7 17.911 L 32.334 17.911 Z"/>
  </mask>
  <mask id="1f1ltfoetb" fill="#fff">
    <path d="M 56.588 17.911 C 56.588 20.705 55.554 23.382 53.712 25.357 C 51.872 27.332 49.375 28.441 46.771 28.441 C 44.167 28.441 41.67 27.332 39.83 25.357 C 37.988 23.382 36.954 20.705 36.954 17.911 L 56.588 17.911 Z"/>
  </mask>
  <path fill="#FFCB00" stroke="#000" stroke-linejoin="round" stroke-width="1.5" d="M 34.644 41.603 C 32.912 36.337 30.603 36.996 24.25 32.388 L 44.462 32.388 C 38.933 36.505 35.8 36.337 34.644 41.603 Z" style=""/>
  <path fill="#FFCB00" stroke="#000" stroke-width="1.5" d="M 50.051 23.119 C 50.051 26.338 48.377 29.364 45.467 31.627 C 42.563 33.888 38.503 35.318 33.975 35.318 C 29.446 35.318 25.385 33.888 22.482 31.627 C 19.572 29.364 17.896 26.338 17.896 23.119 C 17.896 19.898 19.572 16.874 22.482 14.61 C 25.385 12.349 29.445 10.918 33.972 10.918 C 38.503 10.918 42.563 12.349 45.467 14.61 C 48.375 16.874 50.053 19.898 50.053 23.119 Z" style=""/>
  <path fill="#B3D4FF" stroke="#000" stroke-width="3" d="M 32.334 17.911 C 32.334 20.705 31.3 23.382 29.459 25.357 C 27.618 27.332 25.12 28.441 22.517 28.441 C 19.914 28.441 17.418 27.332 15.576 25.357 C 13.734 23.382 12.7 20.705 12.7 17.911 L 32.334 17.911 Z" mask="url(#i08j30ef6a)" style=""/>
  <path fill="#B3D4FF" stroke="#000" stroke-width="3" d="M 56.588 17.911 C 56.588 20.705 55.554 23.382 53.712 25.357 C 51.872 27.332 49.375 28.441 46.772 28.441 C 44.168 28.441 41.671 27.332 39.831 25.357 C 37.989 23.382 36.954 20.705 36.954 17.911 L 56.588 17.911 Z" mask="url(#1f1ltfoetb)" style=""/>
  <path stroke="#000" stroke-width="1.5" d="M 31.179 19.393 C 33.489 17.417 35.8 17.417 38.109 19.393" style=""/>
  <path fill="#FFCB00" d="M 34.859 39.957 C 33.128 34.692 23.095 32.388 24.827 31.073 C 26.559 29.757 43.307 29.1 44.462 30.415 C 45.618 31.731 36.541 34.134 34.859 39.957 Z" style=""/>
</svg>